<svg xmlns="http://www.w3.org/2000/svg" width="70" height="32" viewBox="0 0 70 32">
    <g fill="none" fill-rule="evenodd">
        <g>
            <g>
                <path fill="#FFF" stroke="#F3F3F3" stroke-width=".821" d="M69.59.41v31.18H.41V.41h69.18z" transform="translate(-575 -5802) translate(575 5802)"/>
                <g>
                    <path fill="#7F7F7F" d="M9.444 10.44H6.112l-.155-.869c-.786.733-1.805 1.1-3.056 1.1-.827 0-1.504-.197-2.03-.59C.29 9.639 0 9.018 0 8.222c0-1.066.502-1.808 1.505-2.225.414-.175 1.339-.356 2.776-.543 1.005-.132 1.507-.39 1.507-.772 0-.445-.352-.668-1.055-.668-.693 0-1.07.264-1.132.792H.497c0-1.821 1.478-2.732 4.436-2.732 1.748 0 2.913.321 3.495.963.393.435.59 1.236.59 2.405v3.807c-.01.189.01.377.061.56.072.19.199.357.365.477v.155zM4.359 8.842c1.044 0 1.518-.668 1.422-2.003-.347.147-.71.257-1.08.326-.487.101-.807.2-.963.295-.259.135-.417.407-.406.699.002.455.344.683 1.027.683z" transform="translate(-575 -5802) translate(575 5802) translate(14 11)"/>
                    <path fill="#7F7F7F" d="M8.636 10.44L11.553 6.187 8.869 2.306 12.452 2.306 13.476 4.34 14.563 2.306 18.099 2.306 15.322 6.171 18.13 10.44 14.531 10.44 13.384 8.112 12.205 10.44 8.636 10.44z" transform="translate(-575 -5802) translate(575 5802) translate(14 11)"/>
                    <path fill="#7F7F7F" d="M26.24 7.103h-6.16c-.014.431.156.849.467 1.148.3.297.71.46 1.132.45.579 0 .982-.237 1.21-.711h3.086c-.257.93-.841 1.627-1.752 2.094-.766.393-1.68.59-2.742.589-1.354 0-2.45-.362-3.288-1.086-.891-.768-1.336-1.813-1.336-3.137 0-1.313.444-2.38 1.332-3.198.858-.786 1.95-1.179 3.273-1.179 1.489 0 2.663.466 3.521 1.398.859.931 1.277 2.142 1.256 3.632zm-6.16-1.646h2.933c0-.373-.155-.73-.427-.985-.26-.275-.623-.43-1-.427-1.004 0-1.505.47-1.505 1.412z" transform="translate(-575 -5802) translate(575 5802) translate(14 11)"/>
                    <path fill="#7F7F7F" d="M25.507 7.91h3.07c-.012.28.109.551.327.728.23.18.515.274.806.265.684 0 1.025-.244 1.025-.73 0-.331-.43-.585-1.288-.761-1.252-.271-2.054-.488-2.404-.652-.858-.424-1.287-1.092-1.288-2.003 0-.94.43-1.65 1.288-2.126.682-.372 1.535-.559 2.56-.559 2.544 0 3.888.854 4.032 2.561h-2.932c-.062-.528-.383-.791-.961-.791-.61 0-.914.19-.914.574 0 .28.444.517 1.333.711 1.242.271 2.064.508 2.467.712.889.444 1.334 1.106 1.334 1.986 0 .88-.357 1.566-1.071 2.056-.755.527-1.856.79-3.305.79-1.096 0-1.985-.186-2.667-.559-.858-.465-1.329-1.2-1.412-2.204v.002z" transform="translate(-575 -5802) translate(575 5802) translate(14 11)"/>
                    <path fill="#7F7F7F" d="M33.408 7.91h3.072c-.013.28.107.551.325.73.23.18.516.273.807.264.683 0 1.024-.244 1.024-.73 0-.331-.43-.585-1.288-.761-1.25-.271-2.052-.488-2.404-.652-.859-.424-1.288-1.092-1.288-2.003 0-.94.43-1.65 1.288-2.126.682-.372 1.535-.559 2.56-.559 2.543 0 3.888.854 4.033 2.561H38.6c-.062-.528-.382-.791-.961-.791-.61 0-.914.191-.914.574 0 .28.445.517 1.334.711 1.241.271 2.063.508 2.467.712.889.444 1.333 1.106 1.333 1.986 0 .88-.357 1.565-1.071 2.055-.754.527-1.856.79-3.304.79-1.096 0-1.986-.186-2.668-.559-.858-.464-1.327-1.198-1.408-2.202z" transform="translate(-575 -5802) translate(575 5802) translate(14 11)"/>
                    <path stroke="#7F7F7F" d="M11.128 0L13.437 4.586 15.887 0 11.128 0z" transform="translate(-575 -5802) translate(575 5802) translate(14 11)"/>
                </g>
            </g>
        </g>
    </g>
</svg>
