<svg xmlns="http://www.w3.org/2000/svg" width="70" height="32" viewBox="0 0 70 32">
    <g fill="none" fill-rule="evenodd">
        <g>
            <g>
                <path fill="#FFF" stroke="#F3F3F3" stroke-width=".815" d="M69.592.408v31.184H.408V.408h69.184z" transform="translate(-975 -5802) translate(975 5802)"/>
                <g>
                    <path fill="#000E78" fill-rule="nonzero" d="M9.24 10.681L6.342 7.779 6.342 10.681 4.325 10.681 4.325 7.779 1.426 10.681 0 9.253 2.898 6.35 0 6.35 0 4.331 2.898 4.331 0 1.428 1.426 0 4.325 2.902 4.325 0 6.342 0 6.342 2.902 9.24 0 10.667 1.428 7.768 4.331 10.667 4.331 10.667 6.35 7.768 6.35 10.667 9.253z" transform="translate(-975 -5802) translate(975 5802) translate(9 11)"/>
                    <path fill="#7F7F7F" fill-rule="nonzero" d="M9.24 10.681L6.342 7.779 6.342 10.681 4.325 10.681 4.325 7.779 1.426 10.681 0 9.253 2.898 6.35 0 6.35 0 4.331 2.898 4.331 0 1.428 1.426 0 4.325 2.902 4.325 0 6.342 0 6.342 2.902 9.24 0 10.667 1.428 7.768 4.331 10.667 4.331 10.667 6.35 7.768 6.35 10.667 9.253z" transform="translate(-975 -5802) translate(975 5802) translate(9 11)"/>
                    <path fill="#7F7F7F" d="M15.474 2.716c-.326-.137-.678-.205-1.032-.197-1.4 0-2.426.94-2.426 2.356 0 1.461.966 2.395 2.42 2.395.354.011.708-.044 1.043-.164l-.04-.638c-.232.138-.67.224-.998.224-.953 0-1.73-.718-1.73-1.797 0-1.033.705-1.798 1.762-1.798.334-.002.663.087.95.257l.051-.638zM18.786 5.494h-1.823l.914-2.278.91 2.278zm-3.19 1.697h.69l.464-1.161h2.248l.464 1.161h.717l-1.933-4.593h-.696L15.596 7.19zM21.168 3.176h.633c.605 0 .92.264.92.679 0 .441-.367.717-.992.717h-.559l-.002-1.396zm-.658 4.015h.658v-2.04h.394c.348 0 .573 0 .77.448l.703 1.592h.75l-.868-1.83c-.138-.289-.244-.38-.447-.464v-.014c.533-.092.947-.487.947-1.046 0-1.099-.875-1.243-1.782-1.243H20.51v4.597zM24.755 3.176h.769c.947 0 1.676.632 1.676 1.706 0 1.185-.625 1.73-1.755 1.73h-.69V3.177zm-.658 4.015h1.355c1.507 0 2.445-.795 2.445-2.336 0-1.415-1.084-2.257-2.445-2.257h-1.355V7.19z" transform="translate(-975 -5802) translate(975 5802) translate(9 11)"/>
                    <path fill="#7F7F7F" fill-rule="nonzero" d="M32.737 2.662L33.963 2.662 33.963 7.27 32.737 7.27z" transform="translate(-975 -5802) translate(975 5802) translate(9 11)"/>
                    <path fill="#7F7F7F" d="M34.423 7.27L35.551 7.27 35.512 4.121 35.524 4.121 37.133 7.27 38.656 7.27 38.656 2.662 37.535 2.662 37.555 5.791 37.542 5.791 35.986 2.662 34.423 2.662zM28.365 7.27L30.016 7.27 30.016 4.816 32.282 4.816 32.282 3.627 30.016 3.627 30.016 2.343 33.882 2.343 33.882 1.155 28.365 1.155zM41.922 5.415h-1.154l.594-1.802h.013l.547 1.802zm-3.046 1.859h1.247l.362-.983h1.726l.348.983h1.345L42.13 2.665h-1.508l-1.746 4.609zM44.137 7.27L45.264 7.27 45.225 4.121 45.237 4.121 46.847 7.27 48.37 7.27 48.37 2.662 47.249 2.662 47.269 5.791 47.255 5.791 45.699 2.662 44.137 2.662zM48.755 7.152c.445.132.907.198 1.371.197 1.023 0 2.025-.323 2.025-1.517 0-1.665-2.176-1.162-2.176-1.909 0-.403.514-.43.824-.43.34-.003.677.07.986.212.062-.588.116-.95.116-.95-.385-.119-.785-.177-1.188-.172-.928 0-2.004.304-2.004 1.413 0 1.677 2.176 1.136 2.176 1.994 0 .37-.369.448-.759.448-.44.004-.875-.1-1.266-.303l-.105 1.017z" transform="translate(-975 -5802) translate(975 5802) translate(9 11)"/>
                </g>
            </g>
        </g>
    </g>
</svg>
