<svg xmlns="http://www.w3.org/2000/svg" width="70" height="32" viewBox="0 0 70 32">
    <g fill="none" fill-rule="evenodd">
        <g>
            <g>
                <path fill="#FFF" stroke="#F3F3F3" stroke-width=".821" d="M69.59.41v31.18H.41V.41h69.18z" transform="translate(-675 -5802) translate(675 5802)"/>
                <path fill="#7F7F7F" d="M13 19.579l.636-4.23c.052-.343.334-.97.774-1.313.476-.38 1.071-.587 1.685-.585.681 0 1.081.163 1.31.288.139.073.266.166.378.275.164-.141.353-.253.558-.33.383-.174.803-.256 1.225-.24.6 0 1.16.189 1.403.425.244.237.326.378.419.788.028.242.023.487-.015.727l-.623 4.19H19.17s.553-3.702.583-3.916c.03-.213.093-.662-.06-.857-.152-.196-.425-.248-.632-.233-.208.015-.637.077-.752.749-.114.672-.65 4.262-.65 4.262H16.08s.577-3.852.603-4.055c.026-.203.063-.684-.214-.858-.277-.175-.778-.135-.981.142-.204.277-.249.41-.319.832s-.587 3.939-.587 3.939H13zm12.105-2.944s-.348.022-.6.044c-.387.026-.768.107-1.132.239-.42.13-.702.52-.689.953 0 .365.207.77.874.813.667.043 1.287-.377 1.287-.377l.26-1.672zm-2.598-2.62s.465-.328 1.635-.502 1.582.044 2.103.421c.52.377.523 1.037.46 1.45-.065.414-.512 3.425-.512 3.425l-.4.305c-.495.356-1.176.548-1.999.624-.822.077-1.88-.138-2.28-1.024-.4-.887-.163-2.01.948-2.566 1.11-.556 2.784-.523 2.784-.523s.125-.494-.148-.731c-.306-.268-.623-.183-1.311-.072-.5.094-.989.239-1.458.432l.178-1.24zm6.292-1.763c.134-.626.612-1.134 1.067-1.134.455 0 .717.508.583 1.134-.134.625-.61 1.134-1.067 1.134-.457 0-.717-.508-.583-1.134zm-2.295 6.576s1.84-2.476 1.877-2.53c.044-.09.044-.194 0-.283-.052-.092-1.17-1.97-1.226-2.076-.055-.106-.125-.313-.025-.726.1-.414.362-.538.481-.557.12-.018.233.026.372.233.14.208 1.253 1.856 1.297 1.93.044.072.127.09.186.006.06-.085 2.35-3.172 2.46-3.322.112-.15.393-.447.664-.487.27-.04.474-.007.663.131.223.174.342.446.318.724-.034.298-.2.555-.465.886-.266.33-2.67 3.202-2.733 3.271-.055.078-.074.176-.05.269.013.091.166.287.22.365l1.5 2.193.772-5.222h1.489l-.881 5.953h-.874l.774 1.13-1.525 1.188s-2.473-4.234-2.512-4.293c-.04-.058-.093-.15-.214 0s-2.047 2.482-2.047 2.482l-.52-1.265zm7.493.748l.636-4.23c.052-.342.333-.967.774-1.312.477-.38 1.073-.586 1.688-.583.682 0 1.08.163 1.31.288.138.074.264.166.374.275.165-.141.354-.253.559-.33.383-.174.803-.256 1.225-.24.6 0 1.158.189 1.403.425.244.237.325.378.418.788.029.244.024.49-.015.731-.065.43-.623 4.19-.623 4.19h-1.581s.558-3.706.584-3.92c.026-.213.093-.662-.06-.857-.152-.196-.425-.248-.632-.233-.208.015-.637.077-.752.749-.114.672-.651 4.262-.651 4.262h-1.577s.577-3.852.603-4.055c.026-.203.066-.688-.213-.86-.28-.171-.777-.134-.98.143-.204.277-.25.41-.319.832-.07.422-.589 3.94-.589 3.94l-1.582-.003zm9.228-5.937h1.57l-.625 4.187c-.044.29-.015.749.258.88.274.13.718.109.904-.05.185-.16.355-.321.45-.83.097-.509.645-4.194.645-4.194h1.552s-.525 3.591-.585 4.027c-.06.435-.273 1.17-.744 1.54-.471.37-.997.561-2.23.561-1.232 0-1.717-.73-1.791-1.199-.074-.468-.022-.923.082-1.563.104-.639.514-3.358.514-3.358zm4.454 5.937l.636-4.23c.052-.342.333-.967.774-1.312.475-.38 1.069-.585 1.681-.583.682 0 1.081.163 1.31.288.14.073.269.166.381.275.165-.141.354-.253.559-.33.383-.174.803-.256 1.225-.24.599 0 1.158.189 1.403.425.244.237.325.378.418.788.029.244.024.49-.015.731l-.622 4.19h-1.582s.551-3.706.584-3.92c.032-.213.093-.662-.06-.857-.152-.196-.425-.248-.632-.233-.208.015-.638.077-.752.749-.114.672-.651 4.262-.651 4.262h-1.577s.577-3.852.603-4.055c.026-.203.063-.684-.215-.858-.278-.175-.777-.135-.98.142-.204.277-.25.41-.319.832-.07.422-.589 3.94-.589 3.94l-1.58-.004z" transform="translate(-675 -5802) translate(675 5802)"/>
            </g>
        </g>
    </g>
</svg>
