<svg xmlns="http://www.w3.org/2000/svg" width="70" height="32" viewBox="0 0 70 32">
    <g fill="none" fill-rule="evenodd">
        <g>
            <g>
                <path fill="#FFF" stroke="#F3F3F3" stroke-width=".821" d="M69.59.41v31.18H.41V.41h69.18z" transform="translate(-875 -5802) translate(875 5802)"/>
                <path fill="#7F7F7F" fill-rule="nonzero" d="M31.906 9.235c-.227-.886-.846-1.617-1.677-1.98-.854-.38-1.836-.333-2.65.128-2.029 1.136-3.155 4.115-3.765 6.918-.9-.587-1.532-1.553-1.843-2.778l-.971.615c.457 1.49 1.361 2.652 2.585 3.313-.262 1.486-.432 2.987-.508 4.494v.07c-.024.48-.076 1.578-.028 2.77l1.082-.684c-.011-.886.025-1.653.042-2.031v-.072c.068-1.384.22-2.763.454-4.129 1.716.466 3.66.013 5.306-1.266 1.572-1.216 2.422-3.527 1.973-5.368zm-2.639 4.487c-1.394 1.085-3.022 1.465-4.416 1.055.587-2.795 1.612-5.5 3.26-6.423.516-.291 1.138-.32 1.678-.077.518.223.906.676 1.05 1.227.338 1.389-.367 3.284-1.572 4.218zm19.067 1.168c.526-1.076.828-2.78.464-3.844-.255-.746-.834-1.153-1.57-1.127-1.401.044-1.944 1.818-2.207 2.67-.672 2.267-1.063 4.608-1.166 6.971l-.127.096c-.243.184-.789.604-1.02.62-.064-.143-.1-.298-.102-.455-.026-.334 0-1.2.03-1.897.018-.428.03-.798.03-1.014-.01-.884-.531-1.454-1.328-1.454-.63 0-1.405.38-2.006.991-.629.636-1.121 1.397-1.446 2.235-.154.396-.243.813-.265 1.238-.106.083-.206.16-.271.202-.77.523-.99.344-1.063.285-.349-.288-.013-1.158.282-1.926.278-.718.538-1.395.415-1.96-.036-.169-.15-.31-.306-.379-.156-.07-.336-.058-.483.029-.231.136-.98.305-1.419.32.013-.065.022-.124.032-.181.05-.32.168-1.067-.403-1.63-.383-.377-1-.41-1.501-.082-.552.359-.775 1.063-.533 1.68.18.502.57.897 1.066 1.08-.421 1.241-1.164 2.669-1.87 3.213-.093-.337-.185-1.178-.063-3.28.009-.159.015-.279.017-.343.022-.319.01-.767-.316-1.117-.218-.236-.527-.364-.846-.351-.285.008-.566.07-.828.182-.258.098-.506.222-.74.368-1.002.675-1.785 1.633-2.254 2.755-.315.823-.273 1.657.114 2.235.272.41.73.654 1.217.651.497 0 1.027-.238 1.533-.685.38-.324.721-.693 1.016-1.098.068.983.265 1.507.618 1.738.127.083.274.126.424.127.149-.002.294-.042.423-.115 1.142-.604 2.118-2.555 2.62-4.08h.258c.359-.016.715-.065 1.065-.148-.071.22-.158.457-.246.672-.407 1.055-.913 2.37.04 3.148.586.48 1.35.416 2.267-.188.232.392.653.627 1.104.616.946 0 1.853-.878 1.954-.978.222-.221.427-.46.612-.714.028.308.123 1.027.71 1.295.132.06.276.09.42.09.378 0 .763-.194 1.125-.433-.022 1.3.02 2.66.123 4.082l1.025-.648c-.09-1.477-.115-2.882-.064-4.215.787-.542 1.48-.887 2.08-1.036l.451-1.153c-.729.041-1.54.32-2.456.867.138-2.003.497-3.985 1.07-5.907.173-.567.579-1.896 1.227-1.916.228-.008.408.057.528.405.241.707.024 1.9-.273 2.697l.812.796zm-17.871 1.987c-.02.217-.065.431-.133.638-.369 1.156-.65 1.795-1.63 2.659-.307.271-.603.42-.835.42-.136.003-.263-.066-.336-.183-.14-.206-.224-.653 0-1.232.388-.913 1.026-1.693 1.84-2.25.176-.11.362-.202.556-.276.14-.063.291-.1.445-.108h.066s.049.08.027.332zm3.299-.743c-.01.055-.019.112-.032.171-.165-.085-.294-.23-.36-.405-.062-.126-.033-.279.072-.37.054-.054.125-.086.2-.09h.024c.109.113.167.263.1.694h-.004zm7.843.786c-.001.154-.018.307-.05.458-.192.964-.665 1.847-1.358 2.535-.333.33-.877.67-1.21.67-.085 0-.158-.012-.232-.172-.102-.217-.123-.688.128-1.361.272-.696.683-1.326 1.208-1.852.453-.463.965-.673 1.249-.673.121 0 .26 0 .265.395zm6.308 3.559v1.098H49v-1.098h-1.087z" transform="translate(-875 -5802) translate(875 5802)"/>
            </g>
        </g>
    </g>
</svg>
