<svg xmlns="http://www.w3.org/2000/svg" width="70" height="32" viewBox="0 0 70 32">
    <g fill="none" fill-rule="evenodd">
        <g>
            <g>
                <path fill="#FFF" stroke="#F3F3F3" stroke-width=".815" d="M69.592.408v31.184H.408V.408h69.184z" transform="translate(-1075 -5802) translate(1075 5802)"/>
                <g fill="#7F7F7F">
                    <path d="M16.582 1L9.908 9.484h-2.61l-.189-6.237 2.802 1.28-.035 2.707 3.588-5.108c.108-.148.164-.325.158-.505.02-.232-.075-.462-.256-.621h3.216zM35.116 1.25l.228-.25h-3.231c.107.1.142.152.14.185-.05.11-.108.216-.171.32L26.947 9.1c-.114.133-.24.25-.377.383h2.643l-.114-.25c.012-.219.168-.615.483-1.181l.619-.934h2.723c.063.784.099 1.433.107 1.915l-.254.45h3.281l-.447-.632-.495-7.601zm-2.253 4.677h-1.955l1.85-2.863.105 2.863zM24.858.502c-.985-.015-1.952.258-2.776.783-.896.454-1.354 1.027-1.391 1.74-.043.817.234 1.527.818 2.065l1.812 1.16c.652.433.958.813.935 1.159-.023.345-.21.622-.55.847-.346.225-.757.34-1.175.326-.675 0-1.81-.43-3.368-1.225l-.084 1.605c1.218.671 2.412 1.02 3.588 1.02 1.118 0 2.077-.275 2.923-.895.9-.567 1.363-1.248 1.403-1.986.035-.622-.24-1.193-.902-1.798l-1.725-1.166c-.577-.434-.884-.816-.869-1.111.039-.68.503-1.02 1.414-1.02.62 0 1.512.312 2.689.972l.468-1.687C27.084.767 25.98.496 24.858.5zM17.422 9.484c-.02-.35-.077-.666-.096-1l2.667-6.863.584-.621h-3.355c.029.152.056.354.085.505-.003.17-.024.34-.062.505L14.592 8.8l-.507.683h3.337z" transform="translate(-1075 -5802) translate(1075 5802) translate(16 11)"/>
                    <path fill-rule="nonzero" d="M10.089 1L10.059 3.495 4.596 1z" transform="translate(-1075 -5802) translate(1075 5802) translate(16 11)"/>
                </g>
            </g>
        </g>
    </g>
</svg>
