<svg xmlns="http://www.w3.org/2000/svg" width="470" height="312" viewBox="0 0 470 312">
    <g fill="none" fill-rule="evenodd">
        <g>
            <g>
                <path fill="#F2F1F1" d="M64.014 188.005l.09.507c.394.717.065 1.582.471 2.3-.044.273-.035.54.11.788.508 1.482.194 3.091.697 4.574.038 1.023.06 2.048.34 3.045.376 1.228.35 2.51.48 3.769.419 4.03.802 8.065 1.188 12.102.044.462.193.927.023 1.396-.091.752.025 1.485.178 2.218-.22 1.453.388 2.875.163 4.328-.09.364-.032.72.076 1.07-.197 1.745.464 3.447.245 5.19-.074.254-.057.503.04.745-.21.507.15 1.044-.095 1.548-.06.071-.063.145-.01.22-.104.796-.15 1.582.255 2.321l.005.007c.172.357-.081.601-.229.875l.01-.013c-.076.125-.16.242-.298.304l.025-.027c-.1.245-.382.217-.546.367l.02-.014c-.82.364-1.67.423-2.543.266l-.086-.046-.079.053c-.695-.246-1.421.256-2.113-.081l.014.011c-.761-.294-1.549.29-2.31-.071l.015.011c-3.023.007-6.004.541-9.012.746-.506.035-1.018.255-1.527-.004l-.083-.047-.08.051c-.505-.206-1.047.158-1.551-.102l-.007-.002c-.246-.243-.624.041-.868-.212l.01.004c-.12-.071-.228-.159-.322-.264l.012.013c-.285-.252-.166-.654-.357-.94.037-.073.02-.123-.052-.157-.229-.26-.243-.545-.094-.847.012-.235.056-.471.033-.705-.298-3.05-.605-6.104-.913-9.156-.018-.187-.07-.368-.105-.554-.107-3.082-.388-6.146-.906-9.185.03-.47.044-.934-.19-1.366-.14-.163-.127-.402-.286-.556l.006.003c-.116-.066-.226-.057-.328.028l.014-.008c-.443.29-.907.365-1.397.12l.016.018c-.96-.26-1.92.315-2.88 0l.01.005c-.758-.303-1.544.28-2.302-.072l.012.006c-.561-.29-1.181.22-1.74-.122l.012.006c-.352-.27-.832.16-1.165-.213l.025.014c-.203-.084-.442-.04-.63-.179l-.012-.003c-.231-.261-.64.063-.853-.256l.023.014c-.2-.094-.455-.031-.623-.218l.014.007c-.184-.123-.455-.044-.603-.255l.027.022c-.143-.034-.239-.142-.349-.225l-.005-.004c-.1-.085-.203-.166-.31-.243l-.011-.009c-.092-.088-.193-.171-.298-.245l-.011-.01c-.095-.089-.194-.17-.301-.245l-.011-.01c-.094-.09-.193-.173-.3-.248l-.012-.007c-.094-.09-.193-.172-.299-.248l-.01-.01c-.098-.088-.197-.175-.3-.257v-.001c-.106-.094-.232-.165-.294-.304l.03.031c-.347-.198-.16-.636-.395-.886l-.09-.486c-.403-.714-.069-1.582-.477-2.295.047-.271.03-.54-.098-.79-.513-1.399-.201-2.926-.677-4.332.013-.537-.01-1.072-.187-1.588-.555-1.667-.236-3.467-.766-5.14.022-.55-.003-1.098-.183-1.63-.57-3.374-.87-6.772-1.01-10.19.1-.348.048-.687-.054-1.025.226-.703-.22-1.418.04-2.12.061-.075.062-.151.006-.227.26-.48-.178-1.024.138-1.5l-.005.016c.224-.259-.068-.649.228-.888l-.012.026c.113-.19.028-.47.267-.606l-.028.036c.025-.16.124-.267.255-.355l-.02.023c.056-.141.148-.252.274-.333l-.016.022c.054-.14.145-.251.271-.333l-.017.022c.055-.14.147-.251.274-.333l-.019.022c.055-.14.148-.251.274-.333l-.017.022c.056-.14.145-.252.276-.33l-.019.023c.057-.148.142-.268.303-.317l-.03.036c.064-.264.372-.22.505-.401.173-.193.432-.216.651-.32l.451-.115c.733-.243 1.483-.318 2.25-.218.17.002.343.003.514.006.291.171.646-.036.934.151.058.064.126.076.202.032.221.078.477.036.676.194h.002c.17.146.43.068.591.232h-.003c.172.143.45.053.589.269l-.03-.024c.15.044.257.139.341.265l-.023-.017c.142.055.252.146.334.273l-.021-.018c.14.056.251.147.333.274l-.021-.018c.14.055.25.146.331.272l-.022-.017c.142.055.252.146.334.273l-.022-.017c.14.055.25.146.333.274l-.022-.02c.14.056.25.147.334.274l-.025-.017c.142.057.257.146.33.282l-.03-.024c.239.103.215.385.37.548l-.016-.023c.382.31.119.842.409 1.183.116 2.03.31 4.05.594 6.061-.069 1.295.048 2.57.381 3.825-.044.273-.032.538.103.788.405.612.06 1.396.458 2.008-.034.094-.014.17.062.232.24.23.081.618.33.845l-.01-.016c.316.175.092.618.396.8l.005.008c.1.102.229.18.264.33l-.029-.023c.173.024.29.115.34.285l-.027-.023c.16.002.26.114.37.203l.006.002c.166.154.411.073.585.199.058.068.126.081.205.04.217.072.458.05.67.148.194 0 .388.001.581.003.278-1.346-.371-2.667-.108-4.014.08-.367.03-.723-.084-1.075.264-.877-.272-1.756.003-2.633l-.004-.455c.135-.316-.042-.678.142-.986.064-.058.075-.123.026-.196.077-.221.044-.468.162-.679.067-.06.078-.129.034-.208.087-.216.044-.465.173-.67.068-.044.08-.1.038-.166-.001-.168.091-.295.18-.426.07-.04.086-.097.046-.168.002-.175.101-.303.199-.434l.006-.013c.092-.086.162-.187.213-.303l.033-.04c.103-.065.177-.157.223-.271l.031-.04c.106-.064.178-.158.224-.271l.033-.04c.103-.066.178-.156.222-.27l.033-.04c.104-.067.177-.157.223-.271l.033-.04c.104-.067.178-.157.222-.272l.033-.04c.104-.065.18-.155.223-.27l.034-.04c.103-.067.177-.158.226-.27l.031-.036c.1-.078.192-.166.273-.266.136-.186.4-.163.544-.333h-.002c.178-.196.436-.225.661-.323l.44-.126c.266-.193.633-.09.892-.302l.78-.146c.722-.115 1.522-.65 2.03.38 1.413.085 2.802-.128 4.191-.349.202.097.44.058.643.157.061.066.133.083.215.05.143.018.254.11.378.171.056.07.124.09.208.06.157.02.276.114.398.205l.016.007c.086.09.187.161.301.21l.04.033c.066.104.157.179.272.223l.039.033c.067.105.158.177.273.222l.038.033c.067.105.157.178.272.223l.04.033c.065.104.156.178.27.223l.04.032c.066.105.157.178.272.223l.04.032c.066.105.157.179.272.223l.04.033c.065.103.155.18.27.223l.039.033c.07.105.159.183.27.238l.022.023c.089.098.182.19.28.28l-.007-.007c.12.082.24.164.297.306l-.033-.028c.252.094.225.381.378.543l-.014-.02c.231.14.22.416.35.614-.023.088.007.154.085.196.147.158.128.403.298.55l-.007-.01c.285.232.134.639.36.892-.032.085-.014.155.06.211.244.255.123.644.332.913-.042.075-.027.138.044.188.374.422.076 1.032.411 1.463-.04.083-.022.154.05.21.404.616.065 1.4.457 2.017M413.37 162.467l-.339-.001c-.329.257-.762-.113-1.084.182l.013-.004c-.232.138-.525.041-.75.197l-.014.004c-.204.183-.518.054-.717.253l.014-.008c-.136.08-.277.154-.418.225l-.04.016c-.163.225-.532.056-.661.347l.044-.033c-.208.002-.345.116-.454.277l.034-.023c-.183.042-.323.146-.435.293l.029-.02c-.173.056-.314.155-.423.302l.028-.02c-.175.056-.316.156-.425.302l.028-.02c-.173.056-.314.155-.423.303l.027-.02c-.173.055-.314.155-.423.302l.028-.021c-.176.06-.324.155-.413.322l.036-.025c-.198.04-.35.133-.416.335l.05-.032c-.335.041-.306.425-.538.562v-.002c-.174.11-.333.234-.386.449.031.09.002.145-.092.167-.214.164-.208.478-.423.642l.008-.013c-.367.261-.226.764-.51 1.064.041.099.016.174-.077.226-.509.595-.182 1.459-.663 2.065-.44 3.337-1.022 6.651-1.659 9.956.03.284.146.588-.174.795l-.002.004c-.115.09-.24.166-.376.222-.484.12-.945.085-1.37-.197-.199-.197-.055-.5-.225-.705-.064-.09-.063-.177.01-.261-.226-1.2.53-2.323.27-3.525-.066-.444.028-.864.187-1.276-.216-1.197.506-2.32.287-3.518l.046-.586c-.216-.493.217-1.018-.075-1.508l.004.012c-.252-.332.102-.758-.172-1.085l.003.012c-.158-.222-.037-.54-.257-.742l.019.03c-.052-.164-.163-.292-.26-.43-.091-.134-.187-.265-.282-.394l-.002-.002c-.09-.133-.184-.265-.279-.394l-.002-.003c-.092-.131-.185-.264-.28-.392l-.002-.002c-.09-.133-.186-.264-.282-.394l-.002-.003c-.09-.132-.183-.263-.279-.393l-.002-.002c-.09-.133-.184-.265-.28-.393v-.002c-.094-.135-.186-.27-.296-.391l.007.006c-.152-.25-.477-.244-.656-.454l-1.246-.2c-.253.11-.547.032-.796.164l-.031.006c-.182.212-.524.059-.691.306l.036-.026c-.18.042-.32.146-.433.294l.029-.02c-.173.053-.314.155-.423.3l.028-.02c-.175.056-.316.157-.424.303l.027-.02c-.173.055-.314.156-.422.301l.027-.02c-.175.056-.316.157-.424.302l.028-.02c-.176.059-.324.155-.415.324l.039-.033c-.229.056-.381.19-.443.42.011.096-.033.15-.129.164-.106.107-.214.21-.33.303l.011-.01c-.25.13-.234.467-.472.606l-.002.003c-.226.166-.235.474-.433.657l.016-.023c-.39.264-.261.776-.525 1.098l.024.11-.082.074c-.548.584-.194 1.464-.684 2.068.011.443-.025.874-.257 1.267-.408.973-.573 1.988-.514 3.041.073.679-.09 1.324-.283 1.964.188 1.311-.526 2.54-.348 3.85.089.335.026.654-.116.962.254.959-.412 1.866-.167 2.824.08.194.07.38-.037.562.222.626-.291 1.255.006 1.88.072.07.072.138-.003.206.145.388-.129.821.122 1.198l-.003-.014c.251.33-.114.763.184 1.087l-.007-.02c.134.234.044.526.192.757l.002.011c.19.206.071.507.222.724l.002.011c.194.2.059.525.274.716l-.014-.027c.07.137.136.276.204.414.085.05.106.122.062.21-.007.225.096.395.266.532l-.022-.035c.053.17.158.307.28.43l-.01-.014c.067.15.173.278.257.418l.008.01c.097.122.187.25.27.385l.01.014c.098.121.19.248.272.382l.01.015c.1.119.189.246.272.38l.008.015c.102.12.192.247.272.38l.01.015c.1.121.192.247.273.382l.011.013c.098.123.189.249.274.382l.009.013c.106.12.19.263.306.376l-.009-.01c.295.46.838.588 1.227.92l.006.004c.17.227.466.25.678.41l-.025-.025c.266.547.964.192 1.29.617l-.013-.01c.432.527 1.2.17 1.655.629l-.014-.016c1.73.378.643 1.743.923 2.629.009 1.127-.24 2.216-.504 3.302.123 1.777-.72 3.45-.573 5.228.08.43-.007.837-.16 1.235.155 1.56-.653 3.024-.46 4.588-.06 1.353-.32 2.675-.64 3.99.205 1.312-.561 2.544-.327 3.858.072.06.075.121.006.184 1.236.436.46 1.684.972 2.41l-.01-.011c.087.152.177.303.342.385l-.031-.04c.132.33.48.343.73.5l.073.018c1.781.077 3.53.343 5.23.892l-.011-.017c.66.615 1.645.22 2.334.75l-.015-.023c.646.64 1.645.217 2.321.768l-.013-.013c.66.614 1.65.202 2.333.745l-.015-.017c2.648.773 5.338 1.286 8.104 1.317l-.046.012c.382.002.61-.255.846-.5l-.005.005c.509-.459.07-1.262.619-1.707.027-.175.056-.349.082-.525-.051-1.111.127-2.18.542-3.212.08-1.006.185-2.01.535-2.966.695-1.522.436-3.264 1.11-4.791.008-.549.053-1.091.318-1.592.25-.95.8-1.145 1.767-.95 2.413.486 4.85.856 7.284 1.236.54.085 1.094.405 1.658.06l-.031.014c.353-.18.759.12 1.106-.123h.005c.313-.278.765.126 1.064-.22l-.027.012c.243-.11.549-.009.761-.222l-.018.008c.235-.13.548-.016.752-.24l-.029.018c.167-.044.29-.159.432-.246l.01-.007c.124-.097.253-.186.386-.267l.015-.011c.122-.1.248-.191.382-.273l.014-.01c.12-.1.247-.19.38-.272l.015-.01c.121-.1.248-.19.383-.27l.014-.01c.121-.1.248-.193.382-.275l.013-.008c.12-.11.264-.192.376-.311l-.015.013c.254-.134.247-.467.469-.623l-.004.008c.353-.263.213-.76.503-1.054-.04-.102-.014-.181.08-.239.503-.595.178-1.456.66-2.058.046-.198.092-.397.136-.595.521-1.536.79-3.116.795-4.738-.077-.322-.019-.626.112-.922-.24-.855.397-1.671.11-2.529-.063-.089-.058-.177.015-.259-.248-.726.316-1.434.06-2.16-.08-.205-.055-.4.047-.587-.232-.735.326-1.448.063-2.185-.072-.075-.075-.154-.01-.236-.083-.275.01-.594-.212-.836l.017.032c-.05-.165-.162-.293-.257-.43l-.002-.001c-.092-.133-.186-.264-.281-.394h-.002c-.091-.134-.185-.265-.281-.395l-.001-.001c-.09-.133-.185-.265-.28-.394l-.001-.003c-.092-.132-.186-.264-.281-.394v-.003c-.094-.131-.187-.262-.283-.392l-.001-.002c-.094-.134-.18-.276-.306-.388l.013.016c-.128-.257-.461-.245-.613-.47h-.002c-.193-.245-.501-.293-.754-.436l-.538-.187c-.517-.375-1.225-.156-1.734-.556l-.496-.085c-.487.212-.992-.178-1.481.037-.07.074-.149.086-.237.03-.194.003-.348.11-.51.198l-.03.015c-.104.107-.224.187-.368.235l-.052.035c-.088.12-.2.203-.345.246l-.05.037c-.09.118-.202.201-.344.245l-.052.035c-.087.123-.202.201-.344.247l-.05.036c-.09.12-.205.201-.346.245l-.052.037c-.092.121-.207.21-.344.274l-.02.02c-.12.107-.243.208-.368.306l.007-.006c-.149.09-.294.181-.391.329l.035-.025c-.288.104-.275.45-.494.611l.01-.01c-.262.17-.284.49-.454.72.026.104-.01.181-.107.231-.359.4-.166 1.002-.519 1.405-.11 1.201-.291 2.387-.608 3.553.096.212.074.432.046.658-.322 2.461-.364 2.415-2.8 1.957-1.02-.189-.82-.838-.96-1.427-.067-.082-.064-.162.011-.238-.224-.854.363-1.664.131-2.518-.046-.906.159-1.774.392-2.639-.176-1.546.652-2.995.442-4.543-.061-.424.013-.827.168-1.22.17-2.939.929-5.788 1.312-8.693.087-.662.38-1.31.18-2-.077-.45.02-.873.185-1.29-.201-1.309.533-2.536.337-3.845.016-.195.03-.39.048-.586-.21-.495.194-1.011-.052-1.506-.072-.077-.075-.156-.01-.237-.075-.273-.01-.57-.147-.832-.08-.06-.09-.13-.033-.212-.06-.29.025-.616-.21-.863l.012.032c-.115-.244-.003-.56-.245-.762l.022.04c-.056-.148-.118-.29-.19-.43-.086-.05-.107-.12-.064-.21.015-.213-.094-.38-.216-.54-.182-.202-.027-.558-.328-.703l.034.048c-.001-.218-.107-.36-.305-.441l.028.04c-.002-.207-.116-.345-.277-.453l.023.034c-.04-.182-.146-.322-.294-.433l.02.027c-.055-.173-.155-.315-.302-.423l.02.028c-.055-.174-.155-.316-.3-.424l.019.028c-.055-.173-.156-.315-.302-.423l.02.028c-.055-.175-.156-.316-.304-.424l.021.027c-.055-.174-.155-.316-.306-.42l.021.03c-.056-.183-.148-.335-.337-.407l.028.045c-.028-.312-.433-.273-.507-.543l-.04-.03c-.132-.095-.203-.248-.337-.342l.022.023c-.164-.287-.492-.313-.74-.467-.096.032-.163.002-.201-.093-.276-.322-.76-.19-1.05-.478-1.771-.17-3.52-.463-5.25-.88-.37.167-.767-.08-1.136.078" transform="translate(-975 -289) translate(975 289)"/>
                <path fill="#F2F1F1" d="M235 312c85.939 0 156.028-70.08 156.028-156 0-85.922-70.09-156-156.027-156C149.063 0 78.972 70.078 78.972 156c0 85.92 70.091 156 156.029 156" transform="translate(-975 -289) translate(975 289)"/>
                <path fill="#F7F7F7" d="M235 286.478c71.877 0 130.503-58.616 130.503-130.478 0-71.866-58.626-130.48-130.502-130.48-71.879 0-130.503 58.614-130.503 130.48 0 71.862 58.624 130.478 130.503 130.478" transform="translate(-975 -289) translate(975 289)"/>
                <path fill="#FFFFFE" d="M235 258.814c56.64 0 102.837-46.186 102.837-102.814 0-56.63-46.196-102.818-102.836-102.818-56.642 0-102.837 46.187-102.837 102.818 0 56.628 46.195 102.814 102.837 102.814" transform="translate(-975 -289) translate(975 289)"/>
                <path fill="#FFF" d="M0 247.589c184.474-38.514 341.14-34.86 470 10.959L433.952 312H30.81L0 247.589z" transform="translate(-975 -289) translate(975 289)"/>
                <path fill="#F2F1F1" d="M0 241.122s239.708-51.146 470 0v15.62c-52.876-23.421-148.715-38.864-199.46-28.017-64.517 13.791-99.304 9.642-167.856 6.926C53.178 233.69 16.54 242.34 0 247.299v-6.177" transform="translate(-975 -289) translate(975 289)"/>
                <path fill="#F2F1F1" d="M365.966 249.166c2.162.082 4.326.155 6.488.222 2.724.085 5.345.079 8.06.083 1.073 0 2.043-.115 3.086-.19.705-.09 1.255-.195 1.916-.38.585-.177 1.018-.355 1.517-.627.89-.51 1.391-1.005 1.802-1.746.351-.72.46-1.293.372-2.06-.138-.824-.447-1.435-1.092-2.159-.45-.453-.903-.822-1.407-1.139.968-1.985-1.264-4.323-6.726-5.137-5.045-.524-50.217-5.829-52.102-1.389-.873.113-1.69.288-2.616.586-1.384.5-2.231 1.06-2.972 1.993-.434.62-.62 1.138-.653 1.832-.002.614.12 1.09.426 1.675.206.36.423.665.676.949-.857.25-1.46.517-2.131.966-.54.385-.87.729-1.172 1.222-.332.603-.428 1.1-.34 1.75.104.56.3.977.7 1.482.29.347.58.617.985.911.573.398 1.08.665 1.774.959 2.064.77 3.773.9 6.039 1.042.038.009.404.019.474.023 2.193.098 4.365.109 6.555.126 5.536.042 11.046-.225 16.556-.338.259-.005 1.559-.028 3.148-.059.525.311 1.479.36 2.11.36 2.11-.006 4.601-.048 6.663-.27.377-.046.809-.208 1.148-.31.272-.083.5-.248.716-.377" transform="translate(-975 -289) translate(975 289)"/>
                <path fill="#FFF" d="M368.338 176.601l.053.704c.444 1.032-.12 2.17.338 3.201-.097.369-.12.734.045 1.092.496 2.093-.15 4.248.34 6.34-.083 1.405-.191 2.807.058 4.204.35 1.727.142 3.475.151 5.21.033 5.563.017 11.124.005 16.684 0 .639.14 1.295-.155 1.914-.223 1.014-.163 2.03-.052 3.05-.492 1.955.146 3.979-.353 5.933-.176.489-.142.98-.042 1.473-.502 2.354.174 4.768-.36 7.122-.133.333-.14.675-.045 1.022-.352.66.067 1.445-.335 2.099-.09.09-.106.19-.043.3-.25 1.073-.418 2.143.037 3.205l.007.009c.188.509-.191.81-.43 1.162l.017-.016c-.123.16-.252.31-.45.377l.038-.036c-.167.322-.55.248-.793.43l.028-.014c-1.167.387-2.337.353-3.508.02l-.11-.075-.116.063c-.918-.426-1.975.161-2.876-.392l.019.018c-1-.504-2.156.188-3.144-.408l.018.02c-4.13-.395-8.273-.062-12.407-.186-.695-.023-1.425.213-2.084-.21l-.107-.076-.116.06c-.662-.353-1.454.077-2.103-.346l-.01-.003c-.304-.365-.859-.027-1.158-.409l.012.01c-.154-.114-.288-.248-.402-.402l.011.016c-.353-.379-.136-.915-.36-1.333.062-.092.044-.163-.051-.22-.276-.387-.257-.776-.014-1.169.05-.317.138-.637.138-.956.002-4.208-.01-8.417-.023-12.624 0-.258-.047-.515-.07-.773.268-4.222.293-8.445-.009-12.666.104-.635.183-1.27-.079-1.89-.166-.241-.118-.565-.315-.797l.008.005c-.15-.106-.3-.109-.452-.005l.02-.009c-.644.336-1.285.376-1.921-.02l.018.025c-1.277-.486-2.662.173-3.931-.387l.012.008c-.996-.514-2.149.18-3.136-.404l.015.008c-.727-.47-1.641.145-2.358-.4l.016.01c-.447-.414-1.156.11-1.563-.443l.032.021c-.265-.142-.6-.114-.836-.327l-.016-.005c-.283-.388-.883 0-1.132-.465l.03.02c-.261-.154-.616-.102-.822-.38l.02.013c-.236-.195-.617-.12-.791-.428l.035.032c-.191-.067-.309-.226-.448-.356l-.005-.004c-.125-.13-.255-.254-.391-.372l-.014-.013c-.116-.136-.241-.262-.377-.378l-.014-.013c-.114-.136-.24-.26-.376-.377l-.013-.014c-.115-.135-.242-.26-.378-.377l-.012-.013c-.116-.135-.242-.26-.378-.377l-.014-.014c-.118-.135-.242-.265-.372-.392l-.002-.002c-.134-.14-.293-.26-.36-.453l.037.046c-.447-.32-.134-.892-.422-1.264-.018-.225-.039-.448-.058-.673-.457-1.03.12-2.17-.345-3.198.1-.368.116-.732-.026-1.094-.514-1.98.115-4.025-.347-6.006.09-.734.129-1.465-.044-2.194-.533-2.353.143-4.765-.36-7.12.106-.752.144-1.502-.03-2.251-.328-4.683-.285-9.367-.017-14.051.18-.463.157-.933.062-1.406.403-.93-.112-1.968.337-2.892.092-.094.105-.197.038-.31.421-.62-.105-1.422.39-2.028l-.01.02c.34-.321-.005-.895.431-1.181l-.02.033c.18-.246.101-.639.447-.792l-.046.047c.056-.217.208-.35.395-.452l-.027.028c.094-.184.233-.323.418-.418l-.028.028c.094-.184.235-.324.419-.418l-.028.027c.094-.184.235-.323.418-.418l-.028.028c.095-.184.235-.324.419-.418l-.028.027c.096-.185.235-.325.423-.414l-.03.03c.096-.194.23-.348.456-.393l-.046.045c.124-.351.539-.252.742-.48.264-.239.62-.237.933-.351l.63-.094c1.035-.235 2.07-.238 3.105.001.232.027.465.051.7.077.376.273.886.038 1.254.33.073.097.164.12.272.072.292.136.648.114.898.354h.002c.213.223.577.15.776.398l-.004-.003c.216.219.608.133.767.446l-.036-.036c.197.08.333.223.432.41l-.028-.029c.183.095.323.234.418.418l-.027-.027c.183.094.323.234.418.418l-.028-.028c.184.095.323.234.418.418l-.027-.027c.183.094.322.234.417.417l-.027-.027c.184.095.323.234.417.42l-.026-.029c.183.094.323.234.418.418l-.028-.028c.186.097.328.234.41.43l-.038-.039c.314.175.243.557.431.798l-.016-.032c.478.475.05 1.165.398 1.671-.111 2.786-.117 5.571.003 8.357-.266 1.758-.28 3.515.009 5.272-.096.368-.115.73.035 1.09.472.89-.103 1.914.359 2.805-.061.121-.043.228.054.323.294.35.028.856.338 1.2l-.015-.024c.408.283.046.856.436 1.145l.005.013c.122.151.288.273.316.486l-.036-.037c.236.055.38.198.428.435l-.036-.034c.219.023.34.188.48.327l.008.004c.205.232.551.154.772.349.069.1.162.127.275.082.287.129.616.129.895.29l.792.082c.56-1.802-.15-3.693.392-5.496.155-.49.132-.983.025-1.478.478-1.163-.136-2.434.356-3.594.018-.209.035-.417.055-.624.226-.414.034-.93.326-1.327.098-.07.118-.16.062-.265.134-.292.123-.633.311-.904.102-.072.127-.166.078-.28.142-.284.118-.63.324-.893.099-.05.123-.124.074-.222.02-.229.164-.39.3-.557.103-.046.132-.12.087-.223.026-.238.18-.4.33-.567l.01-.016c.137-.106.247-.234.33-.385l.05-.05c.153-.076.265-.192.342-.341l.048-.05c.154-.075.266-.19.34-.341l.052-.05c.15-.076.265-.189.34-.34l.05-.05c.152-.076.264-.19.34-.341l.05-.05c.152-.075.266-.19.341-.34l.05-.05c.151-.075.266-.19.341-.341l.05-.05c.151-.076.266-.19.347-.338l.046-.045c.148-.093.284-.2.408-.326v-.002c.211-.234.568-.167.787-.381h-.002c.268-.244.628-.247.947-.353.207-.037.41-.076.618-.114.389-.227.875-.039 1.258-.293l1.085-.094c1.001-.062 2.165-.684 2.721.789 1.919.304 3.844.2 5.77.084.263.16.593.137.857.3.074.099.169.13.286.096.196.044.332.186.495.285.065.102.157.14.274.108.212.05.363.195.517.335l.02.01c.105.137.235.247.384.33l.05.05c.076.15.191.265.342.34l.05.05c.075.151.19.264.34.34l.05.05c.076.152.19.265.34.342l.051.049c.075.151.19.265.341.34l.05.05c.076.152.19.265.34.34l.051.05c.076.152.19.266.34.34l.05.052c.077.15.188.265.34.34l.05.05c.08.153.192.27.338.36l.026.035c.108.146.223.285.342.42l-.008-.01c.154.127.306.255.368.457l-.04-.043c.33.16.252.55.44.792l-.017-.03c.297.223.246.6.399.887-.045.117-.015.21.09.28.176.235.12.568.33.789l-.005-.013c.355.354.095.89.372 1.266-.058.112-.041.209.052.294.299.382.082.896.333 1.292-.068.098-.058.186.034.264.453.625-.034 1.417.365 2.052-.065.109-.05.207.04.295.47.893-.099 1.919.356 2.814" transform="translate(-975 -289) translate(975 289)"/>
                <path fill="#FFFFFE" d="M338.079 180.176c.203.05.41.086.595.193l.792.082c.56-1.802-.15-3.693.392-5.496.155-.49.132-.983.025-1.479.48-1.162-.136-2.433.356-3.594.018-.208.035-.416.055-.623.226-.414.034-.93.326-1.327.098-.07.118-.16.062-.265.134-.29.123-.633.313-.904.099-.072.125-.166.076-.28.142-.284.118-.63.324-.893.099-.05.123-.124.074-.222.02-.23.164-.39.3-.556.103-.047.132-.121.087-.224.028-.238.18-.402.33-.567l.01-.016c.137-.106.247-.234.33-.385l.05-.05c.153-.076.265-.191.34-.341l.05-.05c.154-.075.266-.19.34-.341l.052-.05c.15-.075.265-.189.34-.34l.05-.05c.152-.076.264-.19.34-.341l.05-.05c.152-.075.266-.19.341-.34l.05-.05c.151-.076.264-.19.342-.341l.05-.05c.15-.076.265-.19.346-.338l.046-.045c.148-.093.284-.2.408-.326v-.002c.211-.234.568-.167.787-.381h-.002c.268-.243.628-.247.947-.353.207-.037.413-.076.618-.114.389-.227.875-.039 1.26-.293.36-.03.721-.063 1.083-.094.278-.017.57-.078.856-.124l.888 1.237s-4.436 2.781-5.392 9.214c-.956 6.432-1.324 17.152-6.46 14.796-1.26-.579-1.931-2.165-2.227-4.227zm-15.27 25.033c-.196-.012-.386-.046-.5-.259l.03.022c-.26-.156-.616-.104-.822-.382l.02.013c-.237-.195-.617-.12-.791-.428l.035.032c-.191-.067-.309-.226-.448-.356l-.005-.004c-.125-.13-.255-.254-.391-.372l-.014-.013c-.116-.136-.241-.262-.377-.378l-.014-.013c-.114-.136-.24-.26-.376-.377l-.014-.014c-.114-.135-.241-.26-.377-.377l-.012-.015c-.116-.133-.242-.259-.378-.375l-.014-.014c-.118-.135-.242-.265-.372-.392l-.002-.002c-.132-.14-.293-.259-.36-.452l.037.045c-.447-.32-.134-.89-.422-1.264-.018-.225-.039-.448-.058-.673-.457-1.03.12-2.17-.345-3.198.102-.368.116-.732-.026-1.094-.514-1.98.115-4.025-.347-6.006.09-.734.129-1.465-.044-2.193-.533-2.354.143-4.766-.36-7.12.104-.753.144-1.503-.03-2.251-.326-4.684-.285-9.367-.017-14.052.18-.463.157-.933.062-1.406.403-.93-.112-1.968.337-2.892.092-.095.105-.197.038-.31.421-.62-.105-1.422.39-2.028l-.01.02c.34-.321-.005-.895.431-1.181l-.02.034c.18-.247.101-.64.447-.793l-.046.046c.056-.216.208-.35.395-.452l-.027.03c.094-.185.233-.324.418-.419l-.028.028c.094-.184.235-.324.419-.418l-.028.027c.094-.184.235-.323.418-.417l-.028.027c.095-.184.235-.324.417-.418l-.026.027c.096-.185.235-.325.423-.414l-.03.03c.096-.194.23-.348.456-.392l-.046.044c.124-.351.539-.252.742-.48.264-.24.62-.237.933-.351l.63-.094c.405-.093.811-.149 1.216-.169l-.085 1.904s-2.954 6.867-2.954 16.256c0 8.438-.009 27.208 1.95 36.123z" transform="translate(-975 -289) translate(975 289)"/>
                <path fill="#F2F1F1" d="M325.99 151.119l.496.054c.375.273.887.037 1.255.33.073.097.164.12.271.072.293.137.649.114.899.354h.002c.213.223.577.15.776.398l-.004-.004c.216.22.608.134.767.447l-.036-.036c.197.08.333.223.432.41l-.028-.028c.183.094.323.233.418.417l-.027-.027c.183.094.323.234.418.418l-.028-.028c.184.095.323.234.418.418l-.027-.027c.183.094.322.234.417.418l-.027-.028c.184.095.323.234.417.42l-.026-.029c.183.094.323.233.418.418l-.028-.028c.186.097.328.234.41.43l-.038-.039c.314.175.243.557.431.798l-.016-.032c.478.475.05 1.165.398 1.671-.111 2.786-.117 5.571.003 8.357-.266 1.758-.28 3.515.009 5.272-.096.367-.115.73.035 1.09.472.89-.103 1.914.359 2.805-.061.121-.043.228.054.324.294.348.028.855.338 1.2l-.015-.025c.408.283.046.856.436 1.145l.005.012c.122.152.288.274.316.487l-.036-.037c.236.055.38.198.428.435l-.034-.034c.216.023.339.188.478.327l.008.004c.205.232.551.154.772.348.069.102.162.128.275.083.053.025.112.044.17.062l-.053 2.157c-11.216-1.044-9.824-13.3-9.216-20.08.61-6.78-2.87-9.91-2.87-9.91l.18-1.189zm42.348 25.482l.053.704c.442 1.032-.12 2.17.337 3.201-.095.369-.118.734.045 1.092.497 2.093-.148 4.248.341 6.34-.083 1.403-.191 2.807.058 4.205.35 1.728.14 3.474.151 5.21.033 5.562.017 11.123.006 16.683-.001.639.139 1.295-.156 1.914-.223 1.014-.163 2.03-.052 3.05-.492 1.955.146 3.979-.353 5.933-.176.489-.142.98-.042 1.473-.502 2.354.174 4.768-.36 7.122-.133.333-.14.675-.045 1.022-.352.66.066 1.445-.335 2.099-.09.09-.106.19-.043.3-.25 1.073-.418 2.141.037 3.205l.007.009c.188.509-.191.81-.43 1.162l.017-.017c-.123.16-.252.31-.45.378l.038-.036c-.167.322-.55.248-.791.43l.026-.014c-1.167.387-2.335.353-3.508.02l-.11-.075-.116.063c-.918-.426-1.975.161-2.876-.392l.019.016c-1-.502-2.156.191-3.143-.406l.017.02c-4.13-.395-8.273-.062-12.407-.186-.695-.023-1.425.213-2.085-.21l-.106-.076-.116.06c-.662-.353-1.454.077-2.103-.346l-.01-.003c-.304-.365-.859-.027-1.158-.409l.012.01c-.154-.114-.288-.248-.404-.402l.013.016c-.085-.093-.136-.195-.17-.3 7.836-.227 25.31-1.653 25.31-9.881 0-10.604.872-26.424-.52-45.2-1.391-18.777-5.912-22.341-5.912-22.341l-5.956-2.854c.815-.142 1.628-.28 2.067.879 1.919.304 3.844.2 5.77.084.263.16.593.137.857.3.074.099.169.13.286.096.196.045.332.186.494.285.066.102.158.14.275.108.212.05.363.194.517.335l.02.01c.105.137.235.247.384.33l.05.05c.076.15.191.265.342.34l.05.05c.075.151.19.264.34.34l.051.05c.075.152.19.266.34.342l.05.049c.075.151.19.265.34.34l.051.05c.076.152.19.264.34.34l.051.05c.076.152.19.265.34.34l.05.052c.077.15.188.266.34.34l.05.05c.08.153.192.27.338.36l.026.035c.108.146.223.285.342.42l-.008-.01c.154.127.306.255.368.456l-.04-.042c.33.16.252.55.44.792l-.017-.03c.297.223.246.6.399.887-.045.117-.015.21.09.28.176.235.12.568.33.789l-.005-.013c.355.355.095.89.372 1.266-.058.112-.041.209.052.294.299.382.082.896.333 1.292-.068.098-.058.186.034.264.453.625-.034 1.417.365 2.052-.065.109-.05.207.04.295.47.893-.099 1.919.356 2.814z" transform="translate(-975 -289) translate(975 289)"/>
                <path fill="#8C8C8C" d="M370.027 191.02c-.066-5.596-.413-11.175-1.252-16.714-.371-2.446-.882-4.864-1.791-7.172-1.265-3.208-3.519-5.4-6.788-6.555-3.85-1.36-7.787-1.535-11.72-.603-2.973.705-5.353 2.374-6.556 5.327-.562 1.381-.982 2.814-1.282 4.288-.405 1.99-.364 4.012-.586 6.014-.174 1.555-.16 3.115.103 4.666.074.44.219.89-.038 1.393-1.08-.154-1.862-.84-2.579-1.58-.916-.942-1.664-2.029-1.9-3.346-.215-1.212-.387-2.449-.409-3.677-.048-2.6.028-5.202.028-7.801 0-1.952.03-3.906-.07-5.853-.172-3.292-1.824-5.612-4.848-6.937-1.934-.847-3.944-1.284-6.065-1.212-3.317.112-6.225 2.439-7.074 5.668-.682 2.597-.882 5.259-1.042 7.915-.303 5.069-.154 10.144.011 15.214.147 4.547.43 9.09.63 13.635.13 2.925.315 5.84.807 8.733.268 1.572 1.015 2.788 2.365 3.634.276.172.529.387.817.532 1.809.905 3.664 1.685 5.665 2.052 2.11.385 4.231.687 6.375.845 1.62.12 3.226.419 4.861.304.486-.033.685.2.688.712.004.453-.028.91-.035 1.363-.07 4.16-.162 8.32-.202 12.482-.034 3.51.07 7.022-.034 10.527-.067 2.302.25 4.52.812 6.728.025.1.156.22.257.242.098.024.291-.04.322-.116.63-1.474 1.53-2.836 1.53-4.551.005-7.482.086-14.962.087-22.442 0-1.686-.011-3.38-.281-5.061-.266-1.654-.232-1.659.482-3.155-1.128-.561-2.278-.837-3.525-.394-.56.197-1.16.143-1.743.083-2.198-.226-4.397-.45-6.594-.694-2.47-.276-4.85-.866-7.115-1.935-1.224-.577-2.01-1.336-2.062-2.778-.043-1.23-.275-2.453-.347-3.683-.184-3.18-.34-6.362-.483-9.543-.201-4.48-.42-8.96-.56-13.443-.12-3.902.005-7.804.328-11.695.122-1.487.355-2.963.689-4.425.414-1.819 1.523-2.79 3.338-3.052 2.684-.388 5.173.16 7.464 1.576.74.457 1.238 1.148 1.405 2.03.107.575.282 1.151.284 1.728.005 2.665-.003 5.331-.078 7.997-.084 3.19-.1 6.38.597 9.512.783 3.526 3.059 5.632 6.528 6.473.559.133 1.165.164 1.739.118.713-.055 1.075-.557 1.042-1.168-.026-.516-.034-1.044.045-1.551.421-2.701.653-5.416.778-8.147.097-2.083.532-4.11 1.2-6.098.705-2.098 2.027-3.402 4.215-3.883 3.702-.812 7.349-.718 10.97.44 2.322.74 3.9 2.255 4.864 4.463.68 1.56 1.085 3.198 1.382 4.863 1.026 5.777 1.341 11.623 1.47 17.468.141 6.569.034 13.14.107 19.71.07 6.248-.246 12.48-.625 18.711-.192 3.175-.054 6.376-.717 9.519-.068.311-.031.65-.003.969.03.335.194.62.44.846.305.278.599.432 1.039.189.796-.444 1.27-1.046 1.41-1.97.197-1.284.404-2.565.454-3.87.122-3.051.189-6.11.423-9.153.393-5.128.459-10.263.482-15.398.031-6.437-.054-12.878-.129-19.315" transform="translate(-975 -289) translate(975 289)"/>
                <path fill="#8C8C8C" d="M361.524 223.251c-.113-.146-.244-.345-.399-.378-.266-.056-.507.122-.638.347-.124.217-.219.468-.25.715-.063.511-.076 1.028-.079 1.1 0 .835-.026 1.224.01 1.608.023.247.115.497.224.724.216.448.848.465 1.096.03.124-.217.259-.458.289-.7.126-1.033.025-2.064-.108-3.09-.016-.124-.068-.257-.145-.356M361.375 235.255c-.362-.057-.577.223-.76.484-.485.69-.498 1.448-.242 2.211.078.233.306.4.602.39.291-.01.52-.185.585-.424.115-.428.143-.882.193-1.229 0-.293.014-.485-.003-.677-.026-.3.07-.69-.375-.755M360.584 199.433c-.128-1.115-.455-2.15-1.3-2.949-.122-.113-.37-.204-.518-.161-.247.071-.437.29-.446.575-.009.255.01.518.055.77.216 1.271.342 2.565 1.042 3.706.177.287-.037.907.543.81.312-.051.236-.538.272-.844.076-.642.43-1.232.352-1.907M360.032 176.707c-1.252 1.973-.88 3.851-.502 5.973 1.29-1.98 1.343-3.822.502-5.973M352.52 175.181c-.255.05-.408.304-.44.574-.152 1.348-.136 2.682.495 3.93.044.09.2.124.372.224.803-1.367.753-2.76.235-4.19-.115-.316-.283-.612-.662-.538M350.344 205.958c-.283-.094-.508.102-.601.339-.138.354-.222.737-.292 1.117-.31 1.642-.16 3.342-.605 4.971-.016.062.124.234.195.236.101.005.255-.075.303-.164.458-.848.905-1.699 1.34-2.558.268-.523.372-1.092.367-1.913-.073-.406-.164-1.042-.309-1.668-.036-.148-.238-.31-.398-.36M349.501 222.893c-.09-.029-.237.042-.33.11-.102.073-.195.179-.248.293-.693 1.513-.875 3.119-.772 4.757.033.522.368.951.956 1.34 1.124-2.087.743-4.17.638-6.223-.006-.1-.14-.242-.244-.277M346.194 193.088c-.107-.149-.206-.369-.44-.286-.169.06-.348.166-.458.303-.352.436-.284.975-.32 1.601.027.277.052.665.113 1.048.103.638.232 1.27.35 1.906.032.173.123.245.254.18.108-.053.273-.131.285-.216.164-1.145.68-2.236.537-3.43-.047-.387-.084-.776-.32-1.106M334.906 199.005c.15.01.363-.32.476-.535.62-1.164.446-2.362.073-3.548-.04-.127-.316-.266-.462-.248-.144.018-.356.213-.381.358-.128.69-.201 1.388-.273 1.934.052.543.086.924.128 1.308.035.317.052.708.439.73M333.995 183.282c-.06-.088-.197-.167-.303-.17-.11-.001-.26.063-.326.149-.332.43-.384.95-.425 1.469-.102 1.255.275 2.438.536 3.638.019.09.17.166.275.22.121.064.234-.008.258-.174.135-.959.51-1.882.43-2.874-.061-.77.03-1.572-.445-2.258M326.791 194.155c-.168.187-.364.403-.413.636-.273 1.325-.378 2.648.277 4.145 1.146-1.487.962-3.01 1.123-4.455.026-.226-.133-.35-.298-.447-.256-.15-.507-.08-.689.121M325.729 177.205c-.001-.09-.129-.227-.225-.255-.1-.03-.273.006-.34.078-.167.187-.346.394-.428.624-.844 2.375-.872 4.739.096 7.129.148-.138.3-.21.318-.308.27-1.452.61-2.89.442-4.394-.068-.63.036-1.28.068-1.92.018-.318.072-.637.069-.954M324.29 162.075c-.048-.082-.21-.144-.315-.136-.114.01-.274.088-.316.18-.132.29-.244.596-.318.906-.263 1.12.104 2.181.479 3.262.552-1.133 1.007-2.253.773-3.511-.045-.245-.174-.482-.303-.7M367.756 240.192c-4.392-.307-9.08-.306-13.498-.346-.05 0-.099.002-.148.006-.05-.006-.102-.006-.152-.008-4.796-.025-9.738-.056-14.523.14-.61.03-3.646-.102-3.685.926.039 1.029 3.072.895 3.685.927 4.792.198 9.71.186 14.514.21.05 0 .101-.002.15-.004.05.004.1.007.148.007 4.464.022 9.008.085 13.464-.007.401-.01 2.213.102 2.425-.45.002 0 .06-.004.063-.007.122-.084.222-.1.24-.293.013-.133-.072-.293-.18-.34.003-.005.005-.007.005-.013-.17-.667-2.044-.707-2.508-.748M334.768 240.432c-.311-.21-.643-.208-.956-.237-.005 0-.008.001-.011.004-.003-.003-.007-.004-.01-.004-.34-.017-.69-.04-1.028.094-.044.022-.259-.069-.26.636.001.706.216.616.26.635.338.138.686.128 1.027.146.004 0 .008-.002.01-.004.004.004.007.004.01.005.318.015.64.059.954-.003.027-.008.156.07.171-.31l.005-.003c.008-.06.016-.07.018-.203 0-.091-.006-.2-.014-.234v-.01c-.01-.455-.144-.482-.176-.512M373.783 240.432c-.312-.21-.643-.208-.956-.237-.004 0-.008.001-.01.004-.005-.003-.008-.004-.012-.004-.34-.017-.69-.04-1.027.094-.044.022-.259-.069-.262.636.003.706.218.616.262.635.338.138.687.128 1.027.146.004 0 .007-.002.01-.004.004.004.007.004.01.005.317.015.639.059.954-.003.029-.008.157.07.172-.31l.004-.003c.01-.06.016-.07.017-.203.001-.091-.005-.2-.013-.234v-.01c-.012-.455-.144-.482-.176-.512" transform="translate(-975 -289) translate(975 289)"/>
                <path fill="#F2F1F1" d="M122.68 255.75c2.164-.034 4.326-.075 6.488-.123 2.727-.059 5.342-.202 8.051-.34 1.073-.056 2.03-.222 3.067-.351.697-.125 1.237-.255 1.881-.477.574-.206.99-.403 1.469-.697.849-.55 1.311-1.069 1.666-1.82.296-.73.361-1.301.217-2.057-.202-.804-.554-1.394-1.253-2.074-.484-.425-.964-.766-1.491-1.053.817-2.013-1.587-4.207-7.1-4.723-5.074-.254-50.555-3.126-52.103 1.36-.861.157-1.664.373-2.565.717-1.345.566-2.147 1.165-2.815 2.124-.388.636-.535 1.16-.515 1.847.044.607.201 1.071.552 1.634.232.343.472.63.747.9-.84.293-1.418.589-2.055 1.067-.51.408-.813.767-1.076 1.27-.287.612-.347 1.108-.209 1.746.146.548.375.95.81 1.428.316.327.627.58 1.052.85.603.364 1.13.599 1.843.853 2.118.653 3.833.69 6.106.714.038.007.404-.002.475-.003 2.195-.018 4.363-.12 6.55-.218 5.527-.251 11.007-.804 16.5-1.203.256-.019 1.552-.108 3.135-.224.547.28 1.503.277 2.133.244 2.107-.115 4.59-.288 6.63-.618.371-.063.791-.246 1.123-.365.263-.095.479-.27.687-.408" transform="translate(-975 -289) translate(975 289)"/>
                <path fill="#FFF" d="M109.784 155.86l-.45.074c-.377.412-1.032.02-1.391.48l.013-.007c-.272.233-.681.17-.945.427l-.017.008c-.23.287-.675.187-.894.493l.018-.014c-.164.136-.331.266-.504.39l-.047.032c-.168.332-.693.192-.8.605l.05-.053c-.273.048-.43.229-.537.466l.037-.037c-.23.096-.392.265-.506.484l.033-.033c-.218.111-.383.276-.495.493l.033-.032c-.217.11-.382.275-.491.493l.03-.033c-.217.112-.381.276-.492.494l.031-.033c-.216.112-.38.276-.492.493l.033-.033c-.222.117-.395.277-.477.52l.042-.044c-.249.097-.43.255-.474.536l.056-.053c-.43.127-.307.63-.585.862l.002-.002c-.208.184-.39.383-.412.68.06.11.033.191-.083.24-.25.266-.169.678-.419.943l.009-.018c-.428.426-.13 1.059-.438 1.52.076.12.059.225-.052.315-.544.9.08 1.971-.42 2.878.158 4.511.125 9.023.017 13.534.103.37.325.747-.055 1.092v.003c-.133.148-.283.274-.45.38-.613.266-1.23.32-1.856.04-.303-.215-.182-.648-.45-.88-.108-.104-.123-.22-.048-.347-.563-1.537.187-3.19-.423-4.723-.185-.572-.156-1.148-.038-1.727-.551-1.538.157-3.181-.402-4.717-.021-.262-.045-.524-.067-.785-.396-.604.062-1.396-.435-1.98l.006.017c-.405-.382-.032-1.025-.466-1.396l.005.013c-.258-.257-.168-.705-.502-.922l.03.035c-.103-.207-.28-.35-.439-.51l-.001-.002c-.15-.155-.303-.307-.458-.458l-.003-.003c-.15-.155-.303-.307-.459-.458l-.002-.002c-.15-.155-.303-.308-.458-.459l-.003-.002c-.15-.156-.303-.308-.458-.458l-.003-.003c-.15-.155-.303-.308-.458-.458l-.002-.002c-.15-.156-.304-.308-.459-.46l-.002-.001c-.153-.157-.303-.316-.475-.451l.01.007c-.255-.298-.687-.218-.97-.455l-1.691.012c-.312.2-.715.163-1.016.393l-.04.017c-.194.318-.68.193-.845.555l.04-.041c-.229.095-.392.265-.506.484l.033-.033c-.217.112-.381.275-.492.493l.032-.033c-.218.112-.383.277-.494.494l.033-.032c-.218.11-.382.275-.493.492l.032-.033c-.218.112-.382.277-.494.495l.033-.034c-.22.116-.393.276-.476.52l.042-.052c-.288.124-.46.335-.49.652.034.127-.011.209-.136.246-.114.166-.238.325-.37.476l.014-.018c-.301.228-.207.67-.49.907l-.002.005c-.26.268-.206.678-.428.964l.017-.032c-.457.434-.174 1.082-.45 1.568l.057.138-.094.117c-.594.893.07 1.98-.443 2.886.112.582.16 1.162-.06 1.733-.323 1.378-.317 2.756-.003 4.135.246.881.174 1.771.06 2.661.54 1.692-.133 3.477.392 5.168.195.425.18.86.063 1.297.547 1.215-.13 2.56.407 3.773.148.24.177.488.075.753.43.778-.108 1.721.424 2.483.112.075.127.167.041.272.28.482.013 1.115.429 1.558l-.008-.018c.405.382.02 1.035.484 1.397l-.014-.026c.232.28.177.687.422.962l.006.013c.296.23.206.653.454.907l.007.013c.3.222.193.683.52.889l-.027-.034c.123.167.243.332.363.5.125.05.17.14.13.268.04.297.214.5.467.64l-.032-.038c.104.213.274.37.462.507l-.016-.017c.123.184.292.328.434.495l.01.01c.157.141.305.292.444.452l.016.015c.159.138.307.287.444.445l.016.017c.16.137.307.284.445.443l.016.017c.159.138.307.285.445.444l.017.017c.158.136.306.286.443.444l.017.016c.159.138.307.286.447.445l.016.015c.167.137.309.304.488.43l-.014-.014c.491.542 1.237.593 1.825.944l.01.005c.277.265.671.23.99.392l-.041-.029c.474.665 1.318.039 1.842.53l-.019-.01c.687.602 1.624-.042 2.329.466l-.021-.017c2.372.115 1.236 2.16 1.801 3.27.262 1.49.179 2.985.068 4.48.557 2.322-.185 4.719.404 7.04.2.551.178 1.11.063 1.67.55 2.027-.196 4.142.409 6.166.222 1.804.17 3.611.038 5.42.562 1.69-.176 3.487.425 5.176.108.063.125.144.05.243 1.73.3.981 2.123 1.818 2.971l-.014-.014c.15.182.3.361.537.434l-.051-.046c.248.404.71.346 1.075.497l.103.013c2.372-.298 4.745-.334 7.116.016l-.021-.02c1.011.666 2.227-.073 3.255.474l-.026-.028c.997.702 2.223-.08 3.24.5l-.02-.014c1.01.667 2.227-.1 3.252.47l-.025-.021c3.673.43 7.343.514 11.01-.057l-.058.027c.505-.083.75-.475 1.006-.85l-.004.008c.57-.72-.187-1.683.438-2.394l-.005-.712c-.315-1.457-.32-2.914.002-4.37-.117-1.35-.2-2.696.05-4.04.58-2.167-.146-4.414.404-6.58-.111-.73-.173-1.458.068-2.176.119-1.314.803-1.693 2.125-1.65 3.299.108 6.604.055 9.904.02.735-.01 1.538.291 2.208-.292l-.037.027c.426-.318 1.03-.013 1.434-.41l.009-.001c.35-.438 1.038-.002 1.356-.524l-.032.02c.296-.2.723-.131.958-.461l-.023.014c.282-.224.721-.143.941-.486l-.033.032c.208-.095.348-.276.517-.422l.01-.01c.143-.157.294-.303.453-.441l.017-.017c.137-.16.286-.307.444-.444l.017-.017c.136-.16.285-.307.444-.443l.017-.018c.136-.16.285-.306.444-.443l.016-.018c.138-.158.285-.308.444-.445l.015-.016c.138-.17.306-.311.43-.494l-.017.021c.304-.235.22-.67.481-.927l-.004.013c.408-.427.116-1.056.433-1.509-.076-.125-.058-.235.052-.331.533-.9-.088-1.966.416-2.87l.05-.816c.344-2.149.35-4.297-.004-6.445-.174-.406-.165-.821-.056-1.242-.507-1.077.153-2.298-.417-3.369-.102-.103-.114-.22-.036-.343-.49-.91.101-1.968-.4-2.874-.152-.251-.163-.514-.068-.785-.471-.92.108-1.988-.401-2.902-.114-.085-.134-.19-.067-.31-.17-.348-.117-.79-.464-1.058l.03.038c-.103-.208-.28-.352-.438-.512l-.002-.001c-.151-.156-.304-.309-.459-.459l-.002-.002c-.15-.156-.303-.31-.458-.46h-.003c-.15-.155-.304-.31-.459-.46h-.003c-.15-.156-.302-.31-.457-.46l-.003-.002c-.15-.155-.303-.308-.459-.458v-.003c-.158-.156-.305-.324-.493-.445l.02.018c-.225-.312-.663-.221-.914-.484h-.001c-.312-.28-.73-.278-1.096-.412l-.751-.126c-.768-.379-1.656.066-2.418-.352h-.674c-.599.389-1.353-.016-1.952.375-.076.116-.178.147-.304.093-.257.048-.436.225-.632.376l-.035.025c-.113.165-.257.298-.437.393l-.059.059c-.091.177-.223.313-.401.401l-.06.06c-.09.177-.222.313-.402.4l-.059.06c-.088.18-.225.311-.401.402l-.059.06c-.09.178-.225.31-.403.4l-.057.06c-.096.178-.228.324-.396.437l-.023.033c-.134.167-.273.328-.419.485l.008-.007c-.175.15-.347.303-.443.52l.04-.042c-.36.202-.264.66-.518.92l.01-.017c-.307.284-.263.713-.44 1.051.058.134.028.245-.09.332-.384.607.003 1.364-.374 1.973.122 1.61.147 3.223-.015 4.832.173.263.196.557.206.86.12 3.327.058 3.275-3.268 3.214-1.39-.027-1.27-.929-1.587-1.678-.107-.095-.12-.2-.036-.317-.486-1.078.11-2.282-.385-3.36-.265-1.187-.184-2.382-.07-3.577-.575-2.005.2-4.103-.422-6.104-.176-.547-.168-1.098-.05-1.653-.427-3.923-.058-7.859-.196-11.785-.03-.895.215-1.817-.205-2.684-.2-.578-.166-1.161-.041-1.748-.556-1.686.144-3.472-.408-5.16l-.068-.785c-.385-.61.035-1.381-.4-1.981-.112-.085-.135-.188-.066-.311-.16-.344-.14-.752-.38-1.068-.118-.062-.15-.152-.09-.273-.144-.37-.104-.819-.47-1.093l.024.04c-.206-.298-.128-.741-.494-.956l.037.047c-.106-.18-.221-.354-.344-.522-.127-.049-.17-.137-.131-.266-.03-.286-.21-.48-.408-.665-.284-.227-.16-.733-.587-.859l.055.056c-.05-.285-.22-.452-.502-.515l.046.046c-.05-.272-.23-.429-.468-.537l.04.04c-.096-.231-.267-.393-.486-.508l.032.033c-.11-.218-.275-.382-.492-.493l.032.032c-.111-.217-.276-.382-.493-.493l.033.032c-.112-.217-.277-.381-.494-.493l.033.033c-.111-.217-.277-.382-.493-.493l.032.032c-.113-.218-.276-.384-.5-.49l.037.036c-.116-.228-.272-.41-.539-.463l.049.052c-.107-.405-.634-.263-.79-.604l-.06-.032c-.195-.096-.326-.282-.523-.376l.033.025c-.28-.343-.72-.304-1.08-.454-.121.066-.217.041-.288-.076-.436-.365-1.046-.083-1.494-.4-2.38.168-4.76.168-7.137 0-.452.302-1.033.066-1.487.356" transform="translate(-975 -289) translate(975 289)"/>
                <path fill="#FFFFFE" d="M146.532 225.734c.35-.044.732.023 1.014-.255l.009-.002c.35-.438 1.038-.002 1.356-.524l-.032.02c.296-.2.724-.131.959-.461l-.024.014c.282-.224.721-.143.941-.486l-.033.032c.208-.095.348-.276.517-.422l.01-.01c.143-.156.294-.303.453-.441l.017-.017c.136-.16.286-.307.444-.444l.017-.017c.136-.16.285-.307.444-.443l.016-.018c.137-.16.286-.306.445-.443l.016-.018c.138-.158.285-.308.444-.445l.015-.016c.136-.17.306-.311.43-.494l-.017.021c.304-.235.22-.67.482-.925l-.005.01c.408-.426.114-1.055.433-1.508-.076-.123-.058-.235.052-.331.533-.899-.088-1.966.416-2.87l.05-.816c.344-2.149.35-4.297-.004-6.445-.174-.406-.165-.821-.056-1.242-.507-1.077.153-2.298-.417-3.369-.102-.104-.114-.22-.036-.343-.49-.91.101-1.968-.4-2.874-.151-.251-.163-.514-.068-.785-.471-.92.108-1.987-.401-2.902-.114-.085-.134-.19-.067-.31-.17-.348-.117-.792-.464-1.058l.03.038c-.103-.208-.28-.352-.438-.512l-.004-.001c-.15-.156-.302-.309-.457-.459l-.002-.002c-.15-.156-.303-.31-.458-.46h-.003c-.15-.155-.304-.31-.459-.46h-.003c-.15-.156-.302-.31-.457-.46l-.003-.002c-.15-.155-.304-.308-.457-.457l-.003-.002c-.157-.158-.304-.327-.492-.447l.021.018c-.226-.312-.664-.221-.915-.484h-.001c-.311-.28-.73-.278-1.096-.412l-.751-.126c-.768-.379-1.656.066-2.418-.352h-.674c-.038.022-.075.044-.113.063l2.97 3.27s3.649 17.6 1.95 24.614c-.902 3.717-1.943 5.972-2.723 7.27zM96.859 184.59c-.15-.03-.301-.078-.453-.146-.303-.215-.182-.648-.45-.88-.109-.104-.123-.22-.048-.347-.563-1.537.187-3.19-.423-4.724-.185-.571-.156-1.148-.038-1.726-.393-1.1-.145-2.252-.174-3.38-.27-1.354-.52-2.721-.705-4.07l-.025-.03.006.015c-.403-.382-.032-1.025-.466-1.396l.005.013c-.258-.257-.168-.705-.502-.922l.03.035c-.103-.207-.28-.351-.438-.51l-.002-.002c-.152-.155-.303-.307-.458-.459l-.003-.002c-.15-.155-.303-.307-.459-.458l-.002-.002c-.15-.155-.303-.308-.458-.459l-.003-.002c-.15-.156-.303-.308-.458-.458l-.003-.003c-.15-.155-.303-.308-.458-.458l-.002-.002c-.15-.156-.304-.308-.459-.46l-.002-.001c-.153-.157-.303-.316-.475-.451l.009.007c-.254-.298-.686-.218-.968-.455l-.942.007c.847 2.273 1.726 5.665 1.726 9.961 0 8.308 1.128 19.076 5.743 14.974.832-.738 1.232-1.844 1.355-3.209zm12.925-28.729l-.45.074c-.042.046-.087.08-.134.109 3.533.661 6.307 1.706 6.307 1.706s8.718 4.819 8.821 14.562c.104 9.744 1.335 33.025 2.051 35.486.718 2.461 5.438 2.974 5.438 2.974l.858-2.669c-.567-.297-.56-.946-.797-1.508-.107-.095-.12-.2-.036-.317-.488-1.078.11-2.282-.385-3.36-.265-1.187-.184-2.382-.068-3.577-.577-2.005.198-4.103-.424-6.105-.176-.544-.168-1.097-.05-1.652-.427-3.923-.058-7.859-.196-11.785-.03-.895.215-1.818-.205-2.684-.2-.578-.166-1.161-.041-1.748-.556-1.686.144-3.472-.408-5.16l-.068-.785c-.385-.609.035-1.381-.4-1.981-.112-.085-.135-.188-.066-.312-.16-.343-.14-.75-.38-1.067-.118-.062-.15-.152-.09-.273-.144-.37-.102-.819-.47-1.094l.024.04c-.206-.297-.128-.74-.495-.954l.038.046c-.106-.18-.221-.354-.344-.522-.127-.049-.17-.137-.131-.266-.03-.287-.21-.481-.407-.665-.285-.227-.16-.733-.588-.859l.055.056c-.05-.285-.22-.452-.502-.515l.046.046c-.05-.272-.231-.43-.468-.537l.04.04c-.098-.231-.267-.394-.486-.508l.032.033c-.11-.217-.275-.382-.492-.494l.032.033c-.111-.217-.276-.382-.493-.494l.033.033c-.112-.217-.277-.381-.494-.493l.033.033c-.111-.217-.277-.382-.493-.494l.032.033c-.113-.218-.276-.385-.5-.49l.037.036c-.116-.228-.272-.41-.539-.463l.049.052c-.108-.405-.634-.263-.79-.604l-.06-.032c-.196-.096-.326-.282-.523-.376l.033.026c-.279-.344-.72-.305-1.08-.455-.121.066-.217.041-.288-.076-.436-.365-1.046-.083-1.494-.4-2.38.168-4.76.168-7.137 0-.452.303-1.033.066-1.487.356z" transform="translate(-975 -289) translate(975 289)"/>
                <path fill="#F2F1F1" d="M144.513 190.516h-.065c-.599.39-1.353-.015-1.952.378-.076.114-.178.145-.304.091-.257.048-.436.225-.632.376l-.035.025c-.113.165-.258.298-.437.393l-.059.059c-.091.177-.223.313-.401.401l-.06.06c-.09.176-.222.313-.402.4l-.058.06c-.09.18-.226.311-.402.402l-.059.058c-.09.18-.225.312-.403.403l-.057.06c-.096.177-.228.323-.396.437l-.023.032c-.134.167-.273.327-.419.485l.008-.007c-.175.15-.349.303-.443.52l.04-.042c-.358.202-.264.66-.518.92l.01-.017c-.307.284-.263.714-.44 1.051.058.134.028.245-.09.332-.385.607.003 1.363-.374 1.973.122 1.61.147 3.222-.015 4.832.173.263.194.557.206.86.093 2.538.077 3.11-1.412 3.21l1.513 4.412c5.395 0 5.556-7.96 4.838-12.065-.72-4.102 2.563-8 2.563-8l.278-2.099zm-60.03-25.828l3.027 1.468s-4.102 7.076-2.667 16.409c1.436 9.332.719 19.486 6.053 21.947 5.334 2.463 10.873 3.386 11.386 7.385.512 4-1.13 28.409 5.026 31.28 6.155 2.872 15.337 6.415 24.081 1.772.001.237.002.475.005.712-.626.711.13 1.675-.439 2.394l.004-.008c-.257.376-.501.767-1.006.85l.058-.028c-3.667.572-7.337.489-11.01.058l.025.02c-1.025-.568-2.241.198-3.252-.469l.02.013c-1.017-.579-2.243.203-3.24-.499l.026.028c-1.028-.547-2.244.194-3.255-.473l.021.019c-2.371-.35-4.744-.314-7.116-.016l-.103-.013c-.364-.15-.827-.09-1.075-.497l.05.046c-.235-.073-.387-.252-.536-.434l.014.014c-.837-.848-.087-2.67-1.818-2.971.075-.101.058-.18-.05-.243-.601-1.689.137-3.486-.425-5.177.133-1.808.184-3.615-.038-5.42-.605-2.022.14-4.138-.41-6.166.116-.56.138-1.118-.062-1.669-.589-2.321.153-4.718-.404-7.04.11-1.495.195-2.99-.068-4.48-.565-1.11.57-3.155-1.801-3.27l.02.017c-.704-.508-1.64.136-2.328-.466l.02.01c-.525-.491-1.369.135-1.843-.53l.04.027c-.318-.162-.712-.125-.989-.39l-.008-.005c-.591-.35-1.335-.402-1.827-.944l.014.012c-.18-.125-.321-.29-.49-.428l-.014-.015c-.139-.159-.288-.307-.447-.445l-.017-.016c-.137-.158-.285-.308-.443-.444l-.017-.017c-.138-.159-.286-.306-.445-.444l-.017-.017c-.136-.16-.285-.306-.444-.443l-.016-.016c-.137-.159-.285-.308-.444-.446l-.016-.016c-.14-.16-.287-.31-.445-.452l-.01-.01c-.141-.166-.31-.31-.432-.494l.015.017c-.188-.136-.358-.294-.462-.507l.032.039c-.253-.142-.427-.344-.466-.64.038-.13-.006-.219-.13-.268-.12-.169-.24-.336-.364-.501l.027.034c-.327-.206-.22-.667-.52-.889l-.007-.013c-.248-.254-.158-.677-.454-.907l-.006-.013c-.246-.275-.19-.681-.422-.962l.014.026c-.464-.362-.08-1.015-.484-1.397l.008.018c-.416-.443-.15-1.076-.429-1.558.086-.105.07-.196-.041-.272-.532-.762.007-1.705-.424-2.483.102-.265.073-.515-.075-.753-.538-1.214.14-2.558-.407-3.772.117-.439.132-.873-.063-1.298-.525-1.691.148-3.476-.393-5.169.115-.889.187-1.779-.06-2.66-.313-1.379-.319-2.758.004-4.135.22-.571.172-1.15.06-1.733.513-.906-.15-1.992.443-2.886l.094-.117-.058-.138c.277-.486-.006-1.134.451-1.568l-.016.032c.221-.286.167-.695.427-.964l.003-.006c.283-.236.188-.678.489-.907l-.014.019c.132-.151.255-.31.37-.477.125-.036.17-.118.135-.244.032-.318.203-.53.49-.653l-.041.052c.083-.243.255-.404.476-.52l-.033.033c.112-.217.276-.382.494-.493l-.032.031c.11-.216.275-.38.493-.492l-.033.033c.111-.217.276-.382.494-.494l-.032.032.024-.047zm23.48-8.298l-.02.024.015-.007c-.274.233-.683.17-.947.427l-.016.008c-.232.287-.676.187-.895.493l.018-.014c-.164.137-.331.266-.504.39l-.047.031c-.168.333-.693.193-.8.607l.05-.054c-.273.048-.43.229-.537.466l.037-.037c-.23.096-.392.264-.506.483l.033-.033c-.218.112-.383.277-.495.494l.034-.033c-.218.112-.382.277-.492.494l.031-.033c-.218.112-.383.276-.493.494l.031-.033c-.216.112-.382.276-.492.493l.033-.033c-.222.117-.394.277-.477.52l.042-.044c-.249.097-.43.256-.474.536l.056-.053c-.43.127-.307.631-.585.863l.002-.003c-.208.183-.39.383-.414.68.062.11.035.191-.081.24-.249.266-.169.678-.419.943l.009-.02c-.428.428-.13 1.06-.438 1.521.075.12.059.226-.052.316-.544.9.08 1.971-.42 2.878.158 4.511.125 9.023.017 13.534.102.37.325.747-.055 1.092v.002c-.133.149-.283.275-.45.38-.287.126-.576.204-.866.224l.654 1.99c5.844 2.574 6.51-6.707 5.95-15.486-.56-8.78 5.847-12.101 5.847-12.101l-1.884-2.639z" transform="translate(-975 -289) translate(975 289)"/>
                <path fill="#8C8C8C" d="M78.764 177.164c.051-2.793.58-5.483 1.53-8.098.677-1.852 1.767-3.429 3.366-4.568 1.833-1.306 3.843-2.03 6.01-.785 2.135 1.226 3.722 2.948 4.343 5.41.188.744.36 1.492.504 2.245.604 3.177.594 6.41.844 9.619.07.918.111 1.838.192 2.755.052.587.32 1.048.977 1.073.496.02 1.003.377 1.606-.046-.619-3.93-.454-7.915-.473-11.892-.011-2.315.303-4.575.844-6.83 1.147-4.772 4.218-7.703 8.683-9.34 3.16-1.16 6.441-1.404 9.76-1.021 1.848.212 3.566.859 5.127 1.914 4.181 2.827 6.595 6.797 7.424 11.708.716 4.243.955 8.548.916 12.84-.072 7.836.565 15.636.977 23.449.192 3.67.286 2.942 3.384 2.878.075-.004.153-.024.228-.04.337-.086.528-.335.532-.653.01-.92-.034-1.84-.037-2.757-.002-1.458-.024-2.917.028-4.372.062-1.787.57-3.49 1.319-5.09 1.056-2.252 2.674-4.009 5.226-4.44 3.472-.586 6.708.005 9.509 2.348.983.825 1.609 1.778 1.958 3.018.402 1.421.437 2.88.636 4.32.46 3.342.95 6.685 1.117 10.057.192 3.934-.112 7.813-1.085 11.644-.534 2.099-1.777 3.503-3.657 4.46-2.855 1.456-5.873 2.21-9.073 2.26-3.147.05-6.275-.228-9.582-.548-.107.912-.223 1.59-.26 2.27-.247 4.598-.51 9.194-.494 13.8.004 1.067-.16 2.136-.25 3.206-.022.226-.06.457-.112.68-.129.561-.465.977-.99 1.19-.365.152-1.15-.372-1.45-.945-.399-.762-.572-1.59-.597-2.441-.037-1.227-.071-2.457-.026-3.682.154-4.217.323-8.433.528-12.646.047-.992.226-1.981.4-2.96.19-1.083.836-1.723 1.93-2.027 1.279-.354 2.564-.445 3.874-.407 2.377.068 4.755.174 7.132.197 2.566.02 4.999-.549 7.356-1.606 1.358-.61 2.002-1.575 2.262-2.945.517-2.72.76-5.46.71-8.23-.058-3-.437-5.968-.807-8.936-.16-1.292-.353-2.585-.445-3.884-.148-2.121-1.175-3.358-3.304-3.8-1.37-.285-2.727-.374-4.11-.322-1.432.054-2.438.731-3.166 1.952-.898 1.505-1.215 3.156-1.23 4.849-.018 1.994.115 3.984.19 5.979.028.767.137 1.533.102 2.297-.06 1.348-.975 2.33-2.306 2.41-1.608.093-3.223.134-4.834.083-1.676-.054-3.174-1.438-3.48-3.097-.53-2.876-.686-5.778-.798-8.698-.214-5.518-.612-11.024-.607-16.558.004-4.444-.24-8.891-.748-13.317-.314-2.745-1.375-5.181-2.953-7.397-1.383-1.946-3.228-3.16-5.653-3.613-3.745-.7-7.351-.324-10.827 1.11-2.617 1.08-4.39 3.035-5.118 5.835-.154.593-.304 1.19-.407 1.792-.258 1.514-.38 3.039-.38 4.58-.002 4.144-.052 8.289-.107 12.433-.008.603.042 1.231-.279 1.801-.156.275-.385.638-.66.5-.712-.355-1.141.044-1.648.403-1.29.908-2.568.73-3.883-.02-1.507-.86-2.005-2.277-2.178-3.839-.211-1.905-.358-3.82-.437-5.734-.09-2.149-.207-4.293-.543-6.418-.205-1.291-.501-2.565-1.213-3.688-.734-1.158-1.777-1.605-3.146-1.395-.97.15-1.73.588-2.327 1.345-.768.975-1.322 2.053-1.662 3.254-.653 2.311-.84 4.675-.877 7.058-.06 4.15.352 8.277.655 12.408.145 1.986.431 3.964.739 5.933.406 2.61 1.35 5.028 2.856 7.214 1.032 1.5 2.37 2.539 4.126 3.141 2.045.701 4.194.914 6.258 1.507.195.056.468.005.653-.093.587-.312.998-.054 1.445.308.44.354.791.713.78 1.321-.004.384.046.768.04 1.15-.106 5.914.319 11.806.695 17.7.334 5.215.327 10.43.166 15.646-.012.383-.027.774-.109 1.146-.066.289-.212.57-.37.824-.247.402-.843.405-1.202.086-.507-.455-.59-1.054-.64-1.67-.183-2.215-.316-4.438-.548-6.65-.6-5.724-.813-11.476-1.164-17.217-.16-2.602-.13-5.216-.188-7.822-.013-.528-.242-.893-.808-.898-1.483-.01-2.87-.477-4.267-.878-3.21-.923-5.765-2.735-7.71-5.49-2.194-3.112-3.151-6.636-3.618-10.314-.814-6.402-1.21-12.831-1.094-19.289" transform="translate(-975 -289) translate(975 289)"/>
                <path fill="#8C8C8C" d="M87.885 180.124c.059-.171.315-.39.474-.385.174.005.46.225.489.386.201 1.181.336 2.367-.656 3.491-.73-1.172-.696-2.32-.307-3.492M91.156 198.085c-.32.052-.509-.235-.62-.516-.712-1.774-.421-3.565-.046-5.348.035-.169.299-.375.483-.407.354-.059.553.275.587.537.095.744.108 1.5.159 2.346-.07.892-.132 1.872-.236 2.847-.022.199-.188.52-.327.54M99.408 202.332c-.093.055-.333.045-.377-.023-.47-.713-.585-1.536-.677-2.111.158-1.53.275-2.811.432-4.091.039-.312.3-.552.626-.514.189.023.475.21.513.372.473 2.02.677 4.04-.26 6.005-.064.133-.14.291-.257.362M104.309 173.418c.52.047.602.637.643 1.061.158 1.645.152 3.288-.392 5.43-.924-2.074-1.262-3.74-.935-5.51.079-.43.081-1.032.684-.98M106.146 237.913c.295.029.656.523.621.851-.049.457-.436.785-.97.739-.288-.024-.637-.119-.619-.517.03-.554.56-1.115.968-1.073M107.865 224.102c.338.02.56.216.676.504.08.203.144.441.122.652-.042.371-.136.739-.24 1.1-.224.792-.457 1.584-.716 2.366-.03.095-.231.156-.363.192-.188.051-.29-.048-.309-.244-.044-.447-.092-.894-.13-1.238-.059-1.363.063-2.215.443-2.968.098-.195.244-.379.517-.364M112.05 210.109c0-.91-.012-1.82.011-2.731.005-.198.018-.451.326-.519.383-.083.6.143.68.424.625 2.125 1.057 4.287.564 6.49-.135.618-.016 1.386-.64 1.855-.972-.353-.445-1.28-.701-1.91-.466-1.145-.212-2.402-.24-3.609M115.387 177.528c.33.041.43.402.459.684.119 1.205.202 2.412.279 3.371-.147 1.233-.193 2.217-.08 3.201.023.193.067.453-.245.536-.297.081-.426-.121-.48-.321-.242-.876-.43-1.767-.68-2.641-.417-1.444-.192-2.853.157-4.263.076-.311.249-.61.59-.567M121.174 172.695c.152-.286.369-.501.712-.467.454.045.657.387.667.784.062 2.197.094 4.393-1.094 6.421-.761-1.293-1.188-2.637-1.112-3.666.08-1.072.312-2.113.827-3.072M121.165 236.509c.067-.178.284-.406.439-.413.173-.006.471.183.514.343.698 2.557.858 5.104-.303 7.588-.046.094-.265.108-.469.184-.567-2.179-.564-4.387-.44-6.597.021-.374.126-.754.26-1.105M121.918 203.596c-.172-.129-.481-.245-.498-.39-.158-1.506-.372-3.018-.358-4.527.01-1.04.096-2.127.513-3.124.113-.269.245-.595.618-.572.479.031.594.429.62.797.04.602.01 1.209.01 1.812.03 1.915-.544 3.753-.682 5.642-.01.125-.145.242-.223.362M123.01 217.733c.064-.201.198-.395.48-.39.285.002.428.197.48.406.428 1.75.409 3.458-.738 5.528-.726-2.113-.781-3.82-.223-5.544M145.637 216.742c-.162.468-.776.84-1.064.682-.418-.232-.283-.65-.34-1.099.173-1.047.355-2.181.56-3.313.022-.112.176-.233.296-.29.251-.115.478.042.577.23.66 1.263.406 2.534-.029 3.79M145.215 208.542c-.903-.229-.511-1.101-.781-1.644-.19-.382-.122-.89-.188-1.524.22-1.168.466-2.504.736-3.835.02-.096.227-.209.353-.216.119-.007.318.087.36.186.141.343.303.705.326 1.065.087 1.444.032 2.883-.356 4.288-.154.558.058 1.216-.45 1.68M132.141 246.684c-5.184-.362-10.713-.362-15.926-.408-.06 0-.117.001-.174.006-.061-.005-.121-.008-.18-.01-5.658-.028-11.489-.063-17.135.166-.72.036-4.302-.119-4.348 1.094.045 1.212 3.625 1.056 4.348 1.092 5.653.235 11.456.22 17.122.249.06 0 .122-.002.18-.006.06.005.117.008.175.008 5.265.028 10.626.103 15.884-.006.474-.013 2.611.12 2.862-.53.001-.004.07-.006.074-.01.144-.099.262-.118.283-.346.015-.155-.085-.346-.215-.402.008-.006.01-.008.01-.016-.2-.786-2.413-.831-2.96-.88M93.219 246.967c-.368-.247-.759-.246-1.127-.28-.006 0-.009 0-.012.006-.005-.005-.01-.006-.014-.006-.4-.02-.814-.046-1.213.113-.05.023-.305-.082-.307.75.002.83.256.724.307.749.4.162.812.15 1.212.17.004.002.009-.001.014-.004.002.005.007.006.012.006.372.02.752.07 1.124-.004.034-.009.184.083.202-.365 0 0 .005-.002.005-.004.011-.069.02-.082.02-.238.002-.107-.005-.238-.014-.276v-.01c-.015-.541-.17-.573-.21-.607M139.25 246.967c-.367-.247-.757-.246-1.126-.28-.005 0-.009 0-.014.006-.003-.005-.008-.006-.012-.006-.4-.02-.814-.046-1.212.113-.052.023-.305-.082-.309.75.004.83.256.724.309.749.4.162.81.15 1.211.17.005.002.009-.001.013-.004.004.005.008.006.013.006.372.02.752.07 1.124-.004.033-.009.184.083.203-.365 0 0 .004-.002.004-.004.01-.069.018-.082.021-.238 0-.107-.005-.238-.016-.276l.001-.01c-.014-.541-.17-.573-.21-.607" transform="translate(-975 -289) translate(975 289)"/>
            </g>
        </g>
    </g>
</svg>
