<svg xmlns="http://www.w3.org/2000/svg" width="70" height="32" viewBox="0 0 70 32">
    <g fill="none" fill-rule="evenodd">
        <g>
            <g>
                <path fill="#FFF" stroke="#F3F3F3" stroke-width=".821" d="M69.59.41v31.18H.41V.41h69.18z" transform="translate(-775 -5802) translate(775 5802)"/>
                <g fill="#7F7F7F" fill-rule="nonzero">
                    <path d="M8.659 3.461h-3.08V.395c.005-.106-.034-.21-.11-.285-.076-.076-.18-.115-.287-.108H3.85c-.108-.01-.214.028-.29.104-.077.076-.116.182-.106.29V3.46H.396c-.108-.01-.214.028-.29.105-.077.076-.115.183-.104.29v1.329c-.01.107.028.213.104.289.076.076.183.114.29.104h3.057v3.05c-.01.107.028.214.104.29.077.076.183.114.29.104h1.335c.108.01.214-.028.29-.104.077-.076.115-.183.105-.29v-3.04-.01H8.66c.107.01.214-.028.29-.103.076-.076.115-.182.105-.29V3.857c.006-.106-.033-.21-.109-.286-.075-.075-.18-.115-.286-.109zM15.714 6.478V4.977c0-1.445-1.075-2.517-2.452-2.517-.617 0-.976.286-1.149.286-.057 0-.1-.057-.1-.156V.145c.005-.04-.008-.079-.037-.107-.028-.028-.067-.041-.107-.036h-1.348c-.1 0-.144.043-.144.143v8.718c0 .1.045.143.144.143h1.22c.2 0 .115-.286.244-.286.17 0 .501.286 1.148.286 1.491.002 2.581-1.027 2.581-2.528zm-1.65 0c.01.273-.094.538-.287.733-.193.194-.457.301-.732.296-.274.003-.539-.104-.733-.298-.194-.193-.302-.457-.298-.731V4.977c.017-.553.47-.992 1.025-.992.555 0 1.01.44 1.026.992v1.501zM21.583 6.621V4.848c0-1.515-1.062-2.531-2.671-2.531-1.609 0-2.68 1.016-2.68 2.531v1.773c0 1.515 1.06 2.53 2.682 2.53 1.62 0 2.669-1.015 2.669-2.53zm-1.65 0c.01.373-.182.722-.504.911-.322.19-.722.19-1.044 0-.322-.19-.515-.538-.504-.91V4.847c-.01-.372.182-.721.504-.91.322-.19.722-.19 1.044 0 .322.189.515.538.503.91v1.773zM27.507 9.008h-1.362c-.1 0-.144-.043-.144-.143V4.977c0-.565-.46-1.022-1.025-1.022-.566 0-1.025.457-1.025 1.022v3.888c0 .1-.045.143-.145.143h-1.348c-.1 0-.143-.043-.143-.143V2.603c0-.1.042-.143.143-.143h1.22c.215 0 .128.286.243.286.172 0 .517-.286 1.177-.286 1.463 0 2.554 1.029 2.554 2.517v3.888c0 .1-.044.143-.145.143zM33.647 9.008h-1.219c-.2 0-.114-.286-.243-.286-.172 0-.516.286-1.162.286-1.493 0-2.569-1.029-2.569-2.53V2.603c0-.1.043-.143.144-.143h1.363c.04-.005.079.009.107.037.028.028.041.067.037.106v3.875c-.01.273.094.538.287.733.193.194.457.301.731.296.275.004.54-.104.734-.297.195-.194.302-.458.299-.732V2.603c0-.1.044-.143.144-.143h1.347c.04-.005.08.009.107.037.028.028.042.067.037.106v6.262c0 .1-.042.143-.144.143zM39.028 2.803c.532.386.847 1 .847 1.172-.004.052-.038.097-.086.116l-1.177.57c-.022.011-.047.016-.071.016-.058 0-.072-.03-.116-.087-.3-.442-.46-.814-1.047-.814h-.416c-.517 0-.788.184-.788.544 0 .585.788.458 1.965.77 1.162.315 1.707.844 1.707 1.788 0 1.344-.961 2.273-2.468 2.273h-.416c-.803 0-1.42-.228-1.865-.7-.445-.459-.617-.858-.617-.987 0-.043.03-.072.086-.1l1.177-.571c.022-.011.047-.016.072-.014.043 0 .07.042.115.1.286.472.474.815 1.032.815h.416c.517 0 .83-.258.83-.615 0-.572-.804-.443-1.98-.743-1.147-.287-1.679-.826-1.679-1.802 0-1.3.99-2.216 2.41-2.216h.417c.677-.001 1.206.161 1.652.485z" transform="translate(-775 -5802) translate(775 5802) translate(15 12)"/>
                </g>
            </g>
        </g>
    </g>
</svg>
