<svg xmlns="http://www.w3.org/2000/svg" width="70" height="32" viewBox="0 0 70 32">
    <g fill="none" fill-rule="evenodd">
        <g>
            <g>
                <path fill="#FFF" stroke="#F3F3F3" stroke-width=".815" d="M69.592.408v31.184H.408V.408h69.184z" transform="translate(-1175 -5802) translate(1175 5802)"/>
                <g fill-rule="nonzero">
                    <path fill="#7F7F7F" d="M.002 4.696C.087 2.11 2.444 0 5.27 0s5.013 2.11 4.882 4.696c-.126 2.559-2.478 4.618-5.262 4.618-2.783 0-4.967-2.061-4.887-4.618z" transform="translate(-1175 -5802) translate(1175 5802) translate(26 12)"/>
                    <path fill="#7F7F7F" d="M7.15 5.3h-.48l.057-.344h.459c-.027.107-.04.225-.04.343h.005z" transform="translate(-1175 -5802) translate(1175 5802) translate(26 12)"/>
                    <path fill="#7F7F7F" d="M8.6 1.18C9.58.41 10.797-.006 12.051 0c2.825 0 4.986 2.111 4.828 4.696-.157 2.559-2.536 4.618-5.316 4.618-1.285 0-2.435-.427-3.292-1.148.092-.075.184-.153.276-.233h-.515c-.08-.083-.126-.13-.165-.175h.87c.116-.121.24-.25.342-.381H7.554c-.041-.06-.086-.121-.125-.18h1.799c.092-.124.183-.254.26-.384H7.206c-.03-.058-.06-.117-.087-.18H9.59c.067-.126.132-.246.184-.377h-2.81c-.02-.06-.042-.122-.06-.18h2.954c.046-.125.091-.248.128-.377H9.19l.04-.18h.802c.03-.128.054-.249.073-.379H9.33l.055-.18h.745c.01-.09.019-.175.022-.262.011-.23.004-.459-.02-.687H6.827c.011-.058.02-.116.033-.175h3.246c-.019-.134-.04-.26-.07-.39H6.972c.02-.06.05-.12.072-.18h2.937c-.037-.132-.086-.258-.135-.384H7.212c.03-.062.07-.123.102-.181h2.448c-.06-.132-.128-.26-.202-.385H7.55c.04-.06.092-.12.132-.18h1.764c-.089-.137-.185-.269-.289-.395H8.004c.054-.062.128-.122.183-.18h.81c-.126-.135-.26-.262-.4-.38l.002-.002z" transform="translate(-1175 -5802) translate(1175 5802) translate(26 12)"/>
                    <path fill="#FFF" d="M8.658 5.925l.413-1.65h.425l.037.163c.13-.116.302-.175.477-.163l-.154.43c-.12 0-.347-.028-.517.466l-.184.754h-.497zM6.61 3.832h.496l-.121.443h.268l-.105.361h-.256l-.169.674c-.03.128-.023.244.264.203l-.046.337c-.114.056-.24.084-.367.08-.114 0-.485-.063-.367-.515l.403-1.583zM8.693 5.182c.07-.27.234-.93-.635-.93-.8 0-.934.727-.958.832-.023.105-.068.84.786.84.208.006.513-.016.636-.074l.092-.342c-.185.026-.372.04-.559.04-.196 0-.513.012-.44-.361l1.078-.005z" transform="translate(-1175 -5802) translate(1175 5802) translate(26 12)"/>
                    <path fill="#7F7F7F" d="M7.661 4.918h.614c.04-.185-.01-.343-.207-.343-.192-.012-.364.133-.407.343z" transform="translate(-1175 -5802) translate(1175 5802) translate(26 12)"/>
                    <path fill="#FFF" d="M6.106 4.648l.128-.338c-.156-.053-.32-.076-.485-.066-.07 0-.664-.006-.771.396-.082.309.035.436.151.483.184.075.292.145.391.191.058.029.087.094.07.155-.019.061-.079.101-.143.095-.077 0-.407.035-.65-.041l-.084.347c.19.045.385.064.58.057.12 0 .707.03.81-.47.05-.243-.06-.353-.153-.406-.112-.067-.228-.128-.347-.18-.1-.04-.17-.197.016-.244.163-.015.326-.007.487.024v-.003zM2.851 5.925L3.337 3.914 2.525 3.914 1.879 5.136 1.827 3.914 1.034 3.914.542 5.925 1.036 5.925 1.389 4.474 1.472 5.925 1.94 5.925 2.681 4.508 2.339 5.925 2.851 5.925zM3.456 4.304l-.092.361c.205-.028.41-.046.617-.052.17.006.362-.018.294.233-.126.011-1.01-.117-1.174.58-.07.342.247.516.5.504.253-.012.324-.04.415-.098l.06.09h.458l.232-.903c.06-.227.165-.774-.666-.774-.218 0-.435.02-.65.058h.006z" transform="translate(-1175 -5802) translate(1175 5802) translate(26 12)"/>
                    <path fill="#7F7F7F" d="M4.183 5.182c-.082-.011-.264-.057-.426.041-.163.098-.213.271-.05.33.162.06.393-.04.43-.19l.046-.181z" transform="translate(-1175 -5802) translate(1175 5802) translate(26 12)"/>
                    <path fill="#FFF" d="M13.085 5.925l.427-1.65h.424l.036.163c.13-.116.303-.175.478-.163l-.151.437c-.12 0-.354-.035-.526.459l-.195.754h-.493zM11.475 4.38c-.114-.064-.246-.093-.377-.082-.312.026-.57.251-.633.553-.106.482.242.722.757.564l.124.405c-.192.077-.398.113-.606.105-.512 0-1.049-.417-.753-1.265.167-.493.63-.831 1.16-.845.405.015.543.14.664.271l-.336.294zM15.684 4.45c-.092-.064-.14-.199-.376-.199-.275 0-.694-.046-.979.711-.19.504.11.963.465.963.154-.01.305-.055.437-.134l.055.134h.532l.557-2.116h-.52l-.171.641z" transform="translate(-1175 -5802) translate(1175 5802) translate(26 12)"/>
                    <path fill="#7F7F7F" d="M15.466 5.13c.059-.15.043-.34-.008-.406-.141-.187-.5-.04-.627.325-.083.237.058.418.229.418.17 0 .305-.134.406-.337z" transform="translate(-1175 -5802) translate(1175 5802) translate(26 12)"/>
                    <path fill="#FFF" d="M11.829 4.304l-.092.361c.205-.028.411-.046.618-.052.17.006.362-.018.29.233-.126.011-1.009-.117-1.182.58-.075.342.238.516.493.504.254-.012.324-.04.415-.098l.06.09h.458l.246-.903c.063-.226.175-.775-.65-.775-.219 0-.437.02-.651.058l-.005.002z" transform="translate(-1175 -5802) translate(1175 5802) translate(26 12)"/>
                    <path fill="#7F7F7F" d="M12.543 5.182c-.082-.011-.263-.057-.427.041-.163.098-.216.271-.055.33.162.06.395-.04.434-.19l.048-.181z" transform="translate(-1175 -5802) translate(1175 5802) translate(26 12)"/>
                </g>
            </g>
        </g>
    </g>
</svg>
