<svg xmlns="http://www.w3.org/2000/svg" width="70" height="32" viewBox="0 0 70 32">
    <g fill="none" fill-rule="evenodd">
        <g>
            <g>
                <path fill="#FFF" stroke="#F3F3F3" stroke-width=".815" d="M69.592.408v31.184H.408V.408h69.184z" transform="translate(-1275 -5802) translate(1275 5802)"/>
                <g fill="#7F7F7F" fill-rule="nonzero">
                    <path d="M14.334 1.52c.622 0 1.201-.014 1.78.005.31.01.452.158.504.468.157.932.305 1.864.457 2.8.006.038.016.075.034.17.06-.108.098-.165.126-.228.407-.903.814-1.806 1.216-2.709.105-.237.273-.451.526-.46.643-.034 1.288-.011 1.955-.011-.042.086-.076.166-.12.243-1.068 1.958-2.14 3.917-3.214 5.878-.505.918-1.239 1.582-2.344 1.692-.664.067-1.343.012-2.047.012.086-.451.159-.903.26-1.348.058-.259.248-.378.53-.367.282.01.546.004.82 0 .703-.008 1.13-.557.94-1.211-.452-1.554-.904-3.107-1.354-4.659-.023-.08-.04-.156-.07-.275zM.843 2.935H0c.093-.49.175-.948.262-1.428.229 0 .432-.008.636 0 .157.008.224-.039.249-.2.063-.43.156-.856.233-1.3.41 0 .803-.018 1.194.005.39.022.546.22.505.597-.03.287-.093.571-.14.886h1.166c-.093.499-.174.963-.26 1.44h-1.18c-.108.632-.228 1.264-.315 1.887-.04.294.16.487.506.549.165.03.336.04.536.063-.093.495-.174.982-.275 1.465-.01.048-.126.11-.186.106-.407-.028-.824-.028-1.217-.12-.97-.229-1.4-.913-1.232-1.87.104-.596.218-1.19.326-1.784.016-.089.021-.179.035-.296zM3.804 6.946l.98-5.4c.452 0 .886-.02 1.317.008.249.016.372.199.372.46-.006.214-.049.426-.07.595.293-.265.587-.578.93-.827.361-.26.815-.368 1.259-.301l-.314 1.747c-.306.025-.59.017-.86.078-.68.152-1.106.595-1.267 1.235-.17.683-.279 1.38-.41 2.072l-.064.333H3.804zM11.662 1.456c-.093.516-.247 1.686-.247 1.686s-.17.014-.21.025c-.444.123-.726.399-.816.826-.098.468.066.858.466 1.154.027.02.163.13.163.13s-.208 1.123-.297 1.642c-1.42-.387-2.31-1.75-2.065-3.162.286-1.64 1.826-2.432 3.006-2.301z" transform="translate(-1275 -5802) translate(1275 5802) translate(25 11)"/>
                    <path d="M11.34 7.012c.085-.491.186-.963.27-1.438.013-.076.041-.221.041-.221.051-.006.101-.014.151-.025.42-.098.738-.43.809-.843.093-.471-.061-.854-.465-1.143-.037-.014-.076-.024-.116-.029l.28-1.69c.996.134 2.122 1.281 2.077 2.68-.06 1.874-1.77 2.896-3.047 2.709z" transform="translate(-1275 -5802) translate(1275 5802) translate(25 11)"/>
                </g>
            </g>
        </g>
    </g>
</svg>
